<svg width="204" height="60" viewBox="0 0 204 60" fill="none" xmlns="http://www.w3.org/2000/svg">
<path d="M56.3818 17.5162H65.9212C72.0028 17.5162 77.0267 21.0307 77.0267 29.0551V30.7412C77.0267 38.8266 72.3282 42.4629 66.1043 42.4629H56.3818V17.5162ZM61.7109 22.0465V37.9124H65.7992C69.2569 37.9124 71.5757 35.6574 71.5757 30.6397V29.3192C71.5757 24.3014 69.1349 22.0465 65.6161 22.0465H61.7109ZM79.854 22.2902H84.1253L84.8169 26.983C85.6305 23.7935 87.7051 22.0871 91.468 22.0871H92.7901V27.4705H90.5934C86.261 27.4705 85.2033 28.9738 85.2033 33.24V42.5239H79.9353V22.2902H79.854ZM93.8478 32.8134V32.2445C93.8478 25.4797 98.1801 21.7824 104.079 21.7824C110.099 21.7824 114.31 25.4797 114.31 32.2445V32.8134C114.31 39.4563 110.221 43.0317 104.079 43.0317C97.5496 42.9708 93.8478 39.4766 93.8478 32.8134ZM108.92 32.7524V32.2445C108.92 28.4863 107.028 26.2313 104.018 26.2313C101.068 26.2313 99.1158 28.3034 99.1158 32.2445V32.7524C99.1158 36.3888 101.007 38.4609 104.018 38.4609C107.028 38.3999 108.92 36.3888 108.92 32.7524ZM117.076 22.2902H121.469L121.978 26.1094C123.035 23.5498 125.293 21.7824 128.629 21.7824C133.775 21.7824 137.172 25.4797 137.172 32.3258V32.8946C137.172 39.5376 133.409 43.0521 128.629 43.0521C125.436 43.0521 123.239 41.6097 122.161 39.2938V49.5122H117.015L117.076 22.2902ZM131.822 32.7524V32.3055C131.822 28.2831 129.748 26.2923 126.981 26.2923C124.032 26.2923 122.079 28.5472 122.079 32.3055V32.6915C122.079 36.2669 123.971 38.5218 126.92 38.5218C129.951 38.4609 131.822 36.531 131.822 32.7524ZM144.962 38.7859L144.514 42.4832H139.999V15.5254H145.145V25.8657C146.284 23.2247 148.542 21.7824 151.735 21.7824C156.576 21.8433 160.156 25.175 160.156 31.8789V32.5086C160.156 39.2125 156.759 43.0521 151.613 43.0521C148.216 42.9708 146.019 41.4065 144.962 38.7859ZM154.745 32.5086V32.0008C154.745 28.3034 152.732 26.2313 149.904 26.2313C147.016 26.2313 145.002 28.5472 145.002 32.0617V32.5086C145.002 36.2669 146.955 38.4609 149.843 38.4609C152.935 38.4609 154.745 36.531 154.745 32.5086ZM162.413 32.8134V32.2445C162.413 25.4797 166.746 21.7824 172.644 21.7824C178.665 21.7824 182.875 25.4797 182.875 32.2445V32.8134C182.875 39.4563 178.726 43.0317 172.644 43.0317C166.115 42.9708 162.413 39.4766 162.413 32.8134ZM177.526 32.7524V32.2445C177.526 28.4863 175.634 26.2313 172.624 26.2313C169.675 26.2313 167.722 28.3034 167.722 32.2445V32.7524C167.722 36.3888 169.614 38.4609 172.624 38.4609C175.654 38.3999 177.526 36.3888 177.526 32.7524ZM189.77 32.0008L182.672 22.2902H188.753L192.842 28.3644L196.991 22.2902H203.012L195.811 31.9398L203.398 42.4832H197.438L192.801 35.7793L188.286 42.4832H182.062L189.77 32.0008Z" fill="black"/>
<path d="M23.5942 17.5165L11.7971 25.033L23.5942 32.5495L11.7971 40.066L0 32.5089L11.7971 24.9924L0 17.5165L11.7971 10L23.5942 17.5165ZM11.7361 42.4835L23.5332 34.967L35.3302 42.4835L23.5332 50L11.7361 42.4835ZM23.5942 32.5089L35.3913 24.9924L23.5942 17.5165L35.3302 10L47.1273 17.5165L35.3302 25.033L47.1273 32.5495L35.3302 40.066L23.5942 32.5089Z" fill="#0061FF"/>
</svg>
