<svg width="251" height="60" viewBox="0 0 251 60" fill="none" xmlns="http://www.w3.org/2000/svg">
<path d="M25.9868 35.4273C26.084 35.5892 26.1174 35.7815 26.0807 35.9666C25.7378 37.5262 24.9035 38.9343 23.7009 39.9835C23.6349 40.0334 23.5794 40.0959 23.5376 40.1673C23.5226 40.2 23.5148 40.2355 23.5148 40.2715C23.5148 40.3075 23.5226 40.3431 23.5376 40.3757C23.5616 40.4036 23.5919 40.4256 23.6258 40.4398C23.6599 40.454 23.6967 40.4601 23.7335 40.4574C23.9077 40.411 24.076 40.3452 24.2356 40.2613C24.941 39.8602 25.5643 39.3292 26.0726 38.6962C26.3787 38.3244 26.6808 37.9525 26.9706 37.5684C27.5164 36.8098 27.9203 35.9584 28.1627 35.0555C28.383 34.3241 28.5708 33.5844 28.7994 32.853C28.8928 32.5848 29.0061 32.3239 29.1383 32.0726C29.1915 31.9952 29.2531 31.9239 29.322 31.8601H29.3791C29.4362 32.0521 29.5057 32.236 29.5464 32.4322C29.6532 33.049 29.6684 33.6782 29.5914 34.2995C29.5067 35.1082 29.3412 35.9062 29.0975 36.6818C28.9267 37.1585 28.6963 37.6115 28.4117 38.0302C27.6963 39.2104 26.8515 40.3068 25.8929 41.2992C25.1868 41.9818 24.4234 42.6024 23.611 43.1543C23.5518 43.1847 23.498 43.2248 23.4519 43.2728C23.4044 43.3301 23.3797 43.4028 23.3825 43.4772C23.3995 43.5104 23.4244 43.5388 23.455 43.5602C23.4856 43.5816 23.521 43.5952 23.558 43.5997C23.7287 43.5986 23.8987 43.5767 24.0641 43.5343C24.8184 43.3168 25.5238 42.9561 26.1419 42.4719C27.8709 41.196 29.2751 39.5301 30.2404 37.6093C30.8556 36.3561 31.2544 35.0077 31.4201 33.6212C31.5195 32.7459 31.5291 31.8628 31.4488 30.9856C31.3787 30.5361 31.3925 30.0775 31.4895 29.6331C31.5152 29.5313 31.5522 29.4325 31.5997 29.3388C31.71 29.1263 31.8692 29.1141 31.9753 29.3388C32.087 29.5515 32.1693 29.7784 32.2203 30.0131C32.4444 31.1371 32.5145 32.2863 32.4284 33.4292C32.27 35.2859 31.8037 37.1032 31.0487 38.8066C30.2841 40.5604 29.136 42.1202 27.6891 43.3709C27.2196 43.7795 26.7706 44.1882 26.2848 44.5723C25.7014 44.9969 25.0764 45.3611 24.4193 45.6591C22.9696 46.3801 21.4267 46.8958 19.8351 47.1914C18.8596 47.3609 17.8689 47.4267 16.8796 47.3876C16.3939 47.3876 15.904 47.355 15.4183 47.3304C14.32 47.2696 13.2365 47.0493 12.2014 46.6766C10.7027 46.1546 9.26217 45.478 7.90301 44.6581C6.31796 43.6852 4.96612 42.3753 3.94334 40.8211C3.43842 40.0902 2.99858 39.3163 2.6289 38.5083C2.61005 38.4603 2.57972 38.4177 2.54057 38.3842C2.50142 38.3508 2.45465 38.3274 2.40438 38.3163C2.13593 38.2494 1.8862 38.1223 1.67403 37.9447C1.46187 37.767 1.29285 37.5433 1.17973 37.2906C0.877039 36.5506 0.642037 35.7848 0.477612 35.0024C0.178447 33.7392 0.0182877 32.4471 0 31.1491C0.0122606 30.3272 0.0873201 29.5076 0.224518 28.6973C0.379469 27.5963 0.653211 26.5154 1.04094 25.4733C1.38386 24.5614 1.86583 23.7082 2.46969 22.944C2.82076 22.5027 3.11059 22.0082 3.45348 21.5587C5.62973 18.6796 8.74549 16.6553 12.2586 15.8381C12.9362 15.6746 13.6139 15.503 14.2997 15.3763C14.912 15.2619 15.5244 15.1884 16.153 15.1312C16.8796 15.0658 17.6062 15.0086 18.337 15.0004C21.2684 14.9595 24.1401 15.832 26.5543 17.4971C26.8294 17.6636 27.0773 17.8718 27.289 18.1141C27.4454 18.3048 27.5495 18.5329 27.5912 18.776C27.6073 18.8333 27.64 18.8844 27.6851 18.9232C28.2606 19.4789 28.873 20.006 29.4036 20.6026C30.2469 21.5248 30.8573 22.636 31.1834 23.8429C31.3329 24.3304 31.3849 24.8426 31.3366 25.3502C31.2882 25.8578 31.1405 26.3509 30.9018 26.8013C30.5025 27.4742 29.9411 28.0362 29.2689 28.4358C28.5211 28.9451 27.624 29.1883 26.7216 29.1263C25.878 29.0878 25.0773 28.7436 24.4683 28.1579C23.8285 27.4925 23.1468 26.8687 22.4272 26.2905C21.9537 25.931 21.4638 25.5919 20.97 25.269C20.3728 24.9099 19.7113 24.6711 19.0227 24.5662C18.2394 24.4228 17.4417 24.3748 16.6469 24.4232C14.9094 24.4563 13.2282 25.0464 11.8504 26.1067C10.8179 26.8876 9.96806 27.8846 9.36034 29.0283C9.01617 29.7223 8.7991 30.4724 8.71943 31.2431C8.65297 31.7184 8.61481 32.1974 8.60514 32.6773C8.64365 34.0454 9.00004 35.3857 9.64609 36.5918C10.1234 37.5275 10.7587 38.3735 11.5238 39.0927C12.2355 39.7328 13.024 40.2819 13.8711 40.7271C14.8352 41.2503 15.9 41.5609 16.9939 41.6383C18.4304 41.7885 19.8815 41.5705 21.2108 41.005C21.8479 40.7052 22.4345 40.3082 22.9497 39.8281C23.8396 39.062 24.5861 38.1431 25.1541 37.1149C25.3664 36.7431 25.5133 36.3344 25.693 35.9422C25.746 35.8237 25.8072 35.7052 25.8684 35.5908C25.9059 35.5353 25.9497 35.4846 25.9991 35.4396" fill="black"/>
<path d="M239.772 29.1999C242.712 29.1999 244.67 31.3901 244.67 34.6264C244.67 37.8627 242.712 40.0202 239.772 40.0202C236.833 40.0202 234.842 37.8627 234.842 34.5937C234.842 31.3247 236.8 29.1999 239.772 29.1999ZM153.721 28.873C156.007 28.873 157.509 30.1479 157.869 32.1746H149.606C149.965 30.1316 151.468 28.873 153.721 28.873ZM79.6547 36.8492C79.6547 38.8433 78.479 40.0202 76.3889 40.0202C74.2989 40.0202 73.058 38.8433 73.058 36.8492V25.6695C73.058 25.5611 73.015 25.4572 72.9383 25.3805C72.8618 25.3038 72.758 25.2608 72.6497 25.2608H68.4043C68.296 25.2608 68.1922 25.3038 68.1157 25.3805C68.0391 25.4572 67.9961 25.5611 67.9961 25.6695V37.0454C67.9961 42.0143 70.9026 44.4987 74.5601 44.4987C77.1727 44.4987 78.9362 42.8969 79.6873 40.4778V43.5833C79.6932 43.6898 79.7381 43.7904 79.8134 43.8657C79.8887 43.9411 79.9892 43.986 80.0956 43.992H84.3736C84.4818 43.992 84.5857 43.9489 84.6623 43.8723C84.7388 43.7956 84.7819 43.6917 84.7819 43.5833V25.6695C84.7819 25.5611 84.7388 25.4572 84.6623 25.3805C84.5857 25.3038 84.4818 25.2608 84.3736 25.2608H80.0792C79.9709 25.2608 79.8671 25.3038 79.7906 25.3805C79.714 25.4572 79.671 25.5611 79.671 25.6695L79.6547 36.8492ZM123.611 36.8492C123.611 38.8433 122.435 40.0202 120.345 40.0202C118.255 40.0202 117.014 38.8433 117.014 36.8492V25.6695C117.014 25.5611 116.971 25.4572 116.894 25.3805C116.819 25.3038 116.715 25.2608 116.606 25.2608H112.361C112.252 25.2608 112.148 25.3038 112.072 25.3805C111.995 25.4572 111.953 25.5611 111.953 25.6695V37.0454C111.953 42.0143 114.859 44.4987 118.517 44.4987C121.129 44.4987 122.893 42.8969 123.643 40.4778V43.5833C123.649 43.6898 123.695 43.7904 123.77 43.8657C123.845 43.9411 123.946 43.986 124.052 43.992H128.33C128.439 43.992 128.543 43.9489 128.619 43.8723C128.695 43.7956 128.738 43.6917 128.738 43.5833V25.6695C128.738 25.5611 128.695 25.4572 128.619 25.3805C128.543 25.3038 128.439 25.2608 128.33 25.2608H124.036C123.928 25.2608 123.824 25.3038 123.747 25.3805C123.67 25.4572 123.627 25.5611 123.627 25.6695L123.611 36.8492ZM132.918 43.5833C132.918 43.6917 132.962 43.7956 133.037 43.8723C133.114 43.9489 133.218 43.992 133.327 43.992H137.539C137.647 43.992 137.751 43.9489 137.828 43.8723C137.904 43.7956 137.948 43.6917 137.948 43.5833V33.3188C137.948 30.7363 139.581 30.246 141.867 30.246H143.564C143.673 30.246 143.777 30.203 143.854 30.1263C143.93 30.0497 143.973 29.9457 143.973 29.8373V25.6695C143.973 25.5611 143.93 25.4572 143.854 25.3805C143.777 25.3038 143.673 25.2608 143.564 25.2608H143.157C140.414 25.2608 138.715 26.5357 137.932 29.6413V25.6858C137.932 25.5774 137.888 25.4734 137.812 25.3968C137.735 25.3202 137.631 25.2772 137.523 25.2772H133.311C133.202 25.2772 133.098 25.3202 133.021 25.3968C132.945 25.4734 132.902 25.5774 132.902 25.6858L132.918 43.5833ZM198.526 43.5833C198.526 43.6917 198.57 43.7956 198.646 43.8723C198.722 43.9489 198.826 43.992 198.935 43.992H203.18C203.289 43.992 203.392 43.9489 203.469 43.8723C203.545 43.7956 203.588 43.6917 203.588 43.5833V32.1746C203.588 30.3441 204.601 29.1999 206.527 29.1999C208.454 29.1999 209.532 30.3441 209.532 32.1746V43.5833C209.532 43.6917 209.575 43.7956 209.651 43.8723C209.728 43.9489 209.832 43.992 209.94 43.992H214.218C214.327 43.992 214.43 43.9489 214.507 43.8723C214.584 43.7956 214.626 43.6917 214.626 43.5833V32.1746C214.626 30.3441 215.671 29.1999 217.566 29.1999C219.46 29.1999 220.57 30.3441 220.57 32.1746V43.5833C220.575 43.6898 220.621 43.7904 220.696 43.8657C220.771 43.9411 220.872 43.986 220.978 43.992H225.223C225.331 43.992 225.435 43.9489 225.512 43.8723C225.589 43.7956 225.632 43.6917 225.632 43.5833V32.0112C225.632 27.1731 222.774 24.7214 219.133 24.7214C216.063 24.7214 214.496 26.7155 213.679 29.2163C213.449 27.9688 212.795 26.8395 211.828 26.0202C210.86 25.2009 209.639 24.7419 208.372 24.7214C205.695 24.7214 204.487 26.3559 203.572 28.7749V25.6695C203.572 25.5611 203.529 25.4572 203.452 25.3805C203.375 25.3038 203.272 25.2608 203.163 25.2608H198.919C198.81 25.2608 198.706 25.3038 198.629 25.3805C198.553 25.4572 198.51 25.5611 198.51 25.6695L198.526 43.5833ZM250.092 34.6264C250.092 29.1345 246.859 24.7214 241.666 24.7214C238.27 24.7214 235.657 26.5194 234.842 29.0692V25.6695C234.842 25.5611 234.798 25.4572 234.721 25.3805C234.645 25.3038 234.541 25.2608 234.433 25.2608H230.171C230.063 25.2608 229.959 25.3038 229.883 25.3805C229.806 25.4572 229.763 25.5611 229.763 25.6695V50.8405C229.763 50.9488 229.806 51.0528 229.883 51.1294C229.959 51.206 230.063 51.249 230.171 51.249H234.449C234.557 51.249 234.661 51.206 234.738 51.1294C234.814 51.0528 234.858 50.9488 234.858 50.8405V40.2163C235.674 42.7662 238.287 44.5314 241.682 44.5314C246.875 44.5314 250.108 40.1509 250.108 34.6264H250.092ZM179.357 33.5231L182.651 24.6234L185.953 33.5231H179.357ZM163.028 34.6346C163.028 29.0447 159.697 24.5008 153.688 24.5008C148.039 24.5008 144.349 29.0447 144.349 34.6346C144.349 40.4207 148.463 44.7357 154.733 44.7357C158.13 44.7357 161.036 43.2319 162.408 41.2379C162.443 41.1912 162.469 41.1377 162.484 41.0808C162.499 41.0237 162.502 40.9644 162.492 40.9062C162.483 40.8481 162.462 40.7925 162.431 40.7427C162.399 40.6929 162.359 40.65 162.31 40.6167L159.452 38.067C159.413 38.0321 159.366 38.0059 159.316 37.9902C159.265 37.9744 159.212 37.9695 159.16 37.9756C159.108 37.9818 159.057 37.999 159.012 38.026C158.967 38.053 158.928 38.0892 158.897 38.1323C158.409 38.8372 157.754 39.4093 156.989 39.7974C156.226 40.1855 155.378 40.3772 154.52 40.3553C152.104 40.3553 149.883 39.2111 149.557 36.0729H162.62C162.675 36.078 162.73 36.0708 162.782 36.052C162.834 36.0333 162.881 36.0034 162.919 35.9644C162.959 35.9253 162.989 35.8783 163.007 35.8264C163.026 35.7745 163.033 35.7192 163.028 35.6643V34.6346ZM96.4894 29.2408C96.4894 29.3491 96.5324 29.4531 96.609 29.5297C96.6855 29.6063 96.7893 29.6494 96.8976 29.6494H99.6408V38.4266C99.6408 41.957 101.437 44.0165 105.193 44.0165H108.687C108.795 44.0165 108.899 43.9734 108.976 43.8968C109.052 43.8202 109.095 43.7162 109.095 43.6079V39.9303C109.1 39.8753 109.093 39.82 109.074 39.7681C109.055 39.7163 109.026 39.6692 108.987 39.6302C108.947 39.5912 108.901 39.5613 108.849 39.5425C108.797 39.5237 108.742 39.5167 108.687 39.5217H106.315C105.139 39.5217 104.748 39.1131 104.748 38.116V29.6575H108.634C108.742 29.6575 108.845 29.6145 108.922 29.5379C108.999 29.4613 109.042 29.3573 109.042 29.249V25.6858C109.042 25.5774 108.999 25.4734 108.922 25.3968C108.845 25.3202 108.742 25.2772 108.634 25.2772H104.748V19.8834C104.748 19.775 104.705 19.6711 104.628 19.5944C104.551 19.5178 104.447 19.4748 104.34 19.4748H100C99.9452 19.4697 99.8898 19.4769 99.8381 19.4956C99.7862 19.5144 99.7392 19.5443 99.7002 19.5833C99.6613 19.6223 99.6313 19.6694 99.6127 19.7213C99.5939 19.7731 99.5868 19.8285 99.5918 19.8834V25.2445H96.8486C96.7404 25.2445 96.6365 25.2875 96.56 25.3642C96.4834 25.4408 96.4404 25.5447 96.4404 25.6531L96.4894 29.2408ZM169.838 43.6242C169.819 43.6682 169.812 43.7159 169.817 43.763C169.821 43.8103 169.838 43.8558 169.863 43.8957C169.888 43.9357 169.923 43.969 169.964 43.9928C170.005 44.0166 170.051 44.0304 170.099 44.0328H175.095C175.22 44.0365 175.342 43.9984 175.443 43.9243C175.544 43.8503 175.616 43.7446 175.65 43.6242L177.642 38.1977H187.7L189.741 43.6242C189.776 43.7446 189.848 43.8503 189.949 43.9243C190.05 43.9984 190.172 44.0365 190.297 44.0328H195.391C195.438 44.0304 195.485 44.0166 195.526 43.9928C195.566 43.969 195.602 43.9357 195.627 43.8957C195.652 43.8558 195.668 43.8103 195.672 43.763C195.677 43.7159 195.67 43.6682 195.652 43.6242L186.508 19.8589C186.472 19.7506 186.401 19.6571 186.306 19.5924C186.213 19.5276 186.101 19.4949 185.986 19.4993H179.487C179.368 19.4875 179.248 19.5166 179.147 19.5819C179.046 19.6473 178.971 19.7449 178.932 19.8589L169.838 43.6242ZM56.0273 39.4399C51.6839 39.4399 48.7774 36.2037 48.7774 31.7252C48.7774 27.2467 51.6839 24.0104 56.0273 24.0104C57.2211 24.0228 58.3957 24.3127 59.4583 24.8573C60.521 25.402 61.4425 26.1863 62.1505 27.1486C62.1806 27.2017 62.2229 27.2468 62.274 27.2803C62.325 27.3138 62.3833 27.3345 62.444 27.3409C62.5046 27.3473 62.5659 27.3391 62.6228 27.3171C62.6797 27.295 62.7304 27.2597 62.7709 27.214L66.2326 24.2393C66.3129 24.1657 66.3637 24.0656 66.3757 23.9573C66.3877 23.8491 66.3601 23.7402 66.298 23.6509C64.1752 20.5453 60.5829 18.9762 56.0436 18.9762C48.2876 18.9762 43.1767 24.7623 43.1767 31.7252C43.1767 38.7535 48.3039 44.5396 56.0436 44.5396C60.5829 44.5396 64.4038 42.6108 66.298 39.7995C66.361 39.7105 66.3891 39.6014 66.377 39.4928C66.365 39.3844 66.3136 39.2842 66.2326 39.2111L62.7383 36.3507C62.7008 36.3058 62.6526 36.271 62.5983 36.2492C62.5439 36.2274 62.485 36.2193 62.4269 36.2258C62.3688 36.2322 62.3131 36.253 62.2648 36.2862C62.2166 36.3195 62.1773 36.3641 62.1505 36.4162C61.43 37.3555 60.5027 38.1157 59.4406 38.6374C58.3784 39.159 57.2104 39.4281 56.0273 39.4236V39.4399ZM93.6809 18.1754H89.3538C89.299 18.1703 89.2437 18.1774 89.1918 18.1962C89.14 18.215 89.093 18.2449 89.0541 18.2839C89.015 18.3229 88.9852 18.37 88.9664 18.4218C88.9477 18.4737 88.9406 18.5291 88.9456 18.584V43.5915C88.9456 43.6998 88.9886 43.8038 89.0652 43.8804C89.1417 43.9571 89.2456 44.0002 89.3538 44.0002H93.6605C93.7687 44.0002 93.8726 43.9571 93.9492 43.8804C94.0257 43.8038 94.0686 43.6998 94.0686 43.5915V18.5758C94.0737 18.5209 94.0666 18.4655 94.0479 18.4137C94.0291 18.3618 93.9992 18.3147 93.9602 18.2757C93.9213 18.2367 93.8742 18.2068 93.8225 18.188C93.7706 18.1693 93.7154 18.1622 93.6605 18.1672" fill="black"/>
</svg>
