<svg width="204" height="60" viewBox="0 0 204 60" fill="none" xmlns="http://www.w3.org/2000/svg">
<path d="M12.4884 40.0003C11.4163 38.9248 10.5682 37.6496 9.99265 36.2478C9.4171 34.846 9.12539 33.3451 9.13424 31.831C9.13034 30.317 9.43013 28.8174 10.0161 27.4199C10.602 26.0224 11.4623 24.755 12.5467 23.6919C13.0113 23.2815 13.3866 22.7811 13.6498 22.2214C13.913 21.6617 14.0586 21.0546 14.0775 20.437C14.0964 19.8195 13.9884 19.2046 13.7599 18.63C13.5315 18.0554 13.1875 17.5333 12.749 17.0955C12.3105 16.6576 11.7867 16.3134 11.2097 16.0838C10.6327 15.8543 10.0146 15.7442 9.39334 15.7603C8.77206 15.7765 8.16063 15.9185 7.59649 16.1778C7.03235 16.437 6.52737 16.808 6.11247 17.268C2.21541 21.1191 0.0167483 26.3514 9.52887e-05 31.814C-0.0165577 37.2765 2.15016 42.5219 6.02367 46.3965C6.43721 46.8559 6.94053 47.2267 7.50294 47.4864C8.06535 47.7461 8.67507 47.8892 9.29493 47.907C9.91478 47.9248 10.5318 47.8169 11.1083 47.5899C11.6849 47.3629 12.2089 47.0216 12.6484 46.5867C13.0879 46.1519 13.4338 45.6326 13.6648 45.0605C13.8959 44.4884 14.0073 43.8756 13.9923 43.2593C13.9774 42.643 13.8363 42.0363 13.5777 41.476C13.3192 40.9157 12.9485 40.4136 12.4884 40.0003Z" fill="#FFDA00"/>
<path d="M28.9238 40.0574C27.8423 41.1253 26.5596 41.9706 25.149 42.5449C23.7384 43.1192 22.2277 43.4113 20.7034 43.4044C19.1795 43.4066 17.6704 43.1066 16.2646 42.5219C14.8587 41.9373 13.5843 41.0797 12.516 39.9994C12.1031 39.5376 11.5997 39.1645 11.0367 38.9028C10.4737 38.6412 9.86289 38.4965 9.24169 38.4777C8.62048 38.4589 8.00194 38.5663 7.42395 38.7934C6.84596 39.0205 6.32067 39.3624 5.88026 39.7984C5.43984 40.2343 5.09356 40.755 4.86263 41.3286C4.63169 41.9021 4.52096 42.5166 4.53721 43.1342C4.55345 43.7518 4.69634 44.3596 4.95711 44.9204C5.21789 45.4812 5.59106 45.9832 6.05379 46.3956C7.96798 48.3196 10.2453 49.8491 12.7552 50.8965C15.2652 51.9439 17.9584 52.4886 20.6804 52.4994C23.4025 52.5102 26.1 51.9868 28.6183 50.9593C31.1365 49.9318 33.426 48.4204 35.3556 46.5117C35.7819 46.0919 36.1208 45.5927 36.3531 45.0426C36.5853 44.4926 36.7063 43.9025 36.7091 43.3059C36.712 42.7094 36.5966 42.1182 36.3695 41.566C36.1425 41.0138 35.8083 40.5115 35.386 40.0877C34.9637 39.6639 34.4615 39.327 33.9082 39.0961C33.3549 38.8652 32.7613 38.7449 32.1612 38.7421C31.5612 38.7393 30.9664 38.854 30.4109 39.0797C29.8555 39.3054 29.3501 39.6376 28.9238 40.0574Z" fill="#EB5A68"/>
<path d="M12.458 46.3958C11.8177 47.0312 11.0019 47.4631 10.1143 47.6369C9.22663 47.8106 8.30706 47.7184 7.47221 47.3718C6.63736 47.0253 5.92487 46.4401 5.4251 45.6904C4.92533 44.9407 4.66081 44.0604 4.66509 43.161C4.66937 42.2617 4.94226 41.3838 5.44914 40.6389C5.95603 39.8939 6.67406 39.3154 7.51217 38.9768C8.35028 38.6381 9.27069 38.5545 10.1567 38.7366C11.0426 38.9187 11.8542 39.3583 12.4885 39.9996C13.3335 40.854 13.8045 42.0058 13.7988 43.204C13.7931 44.4021 13.3112 45.5495 12.458 46.3958Z" fill="#D5465F"/>
<path d="M12.5468 23.6915C14.7322 21.5408 17.6863 20.3391 20.7615 20.35C23.8367 20.3609 26.7821 21.5834 28.9521 23.7495C29.3642 24.2137 29.8674 24.5892 30.4309 24.8529C30.9944 25.1166 31.6061 25.263 32.2286 25.283C32.8511 25.3031 33.4711 25.1963 34.0505 24.9694C34.6299 24.7424 35.1565 24.4 35.598 23.9633C36.0394 23.5265 36.3863 23.0047 36.6173 22.4297C36.8484 21.8548 36.9587 21.239 36.9415 20.6201C36.9243 20.0012 36.7799 19.3924 36.5173 18.831C36.2546 18.2697 35.8793 17.7676 35.4143 17.3558C33.5034 15.4317 31.2289 13.9018 28.7215 12.854C26.2142 11.8062 23.5233 11.2612 20.8034 11.2502C18.0835 11.2392 15.3882 11.7624 12.8724 12.7898C10.3565 13.8173 8.06957 15.3287 6.14296 17.2372C5.67676 17.6456 5.29929 18.1442 5.03364 18.7026C4.76799 19.261 4.61976 19.8674 4.59801 20.4847C4.57627 21.102 4.68147 21.7172 4.90717 22.2927C5.13288 22.8682 5.47435 23.3918 5.91067 23.8316C6.347 24.2713 6.86901 24.618 7.44475 24.8502C8.0205 25.0825 8.63787 25.1955 9.25908 25.1824C9.88029 25.1693 10.4923 25.0303 11.0576 24.774C11.6229 24.5176 12.1296 24.1493 12.5468 23.6915Z" fill="#67B3FF"/>
<path d="M12.5467 23.6915C11.9066 24.327 11.0911 24.7593 10.2035 24.9334C9.31588 25.1075 8.39626 25.0156 7.56128 24.6694C6.72629 24.3232 6.01356 23.7382 5.5135 22.9888C5.01343 22.2393 4.74856 21.359 4.75248 20.4597C4.75641 19.5603 5.02895 18.6824 5.53554 17.9373C6.04213 17.1921 6.75994 16.6133 7.59791 16.2743C8.43588 15.9353 9.35626 15.8514 10.2423 16.0331C11.1283 16.2149 11.9401 16.6542 12.5746 17.2952C13.42 18.1493 13.8914 19.3009 13.8862 20.4991C13.881 21.6972 13.3995 22.8447 12.5467 23.6915Z" fill="#47A1FF"/>
<path d="M55.7364 36.2804C57.0532 35.2917 57.2282 35.844 58.3395 36.9487C58.8951 37.5011 60.4149 38.462 59.4203 39.2742C57.3449 40.959 55.4725 41.7157 52.8237 41.7157C46.8284 41.6879 42.5888 37.2388 42.9287 31.3369C43.0734 28.6937 44.1263 26.1917 46.2042 24.4766C48.1046 22.8775 50.4717 22.1814 52.9582 22.2394C54.1768 22.2358 55.3841 22.4724 56.5102 22.9356C57.2729 23.2093 57.9917 23.5916 58.644 24.0705C59.9608 25.0794 59.3468 25.6696 58.3217 26.686C58.0883 26.9181 57.8549 27.1526 57.6494 27.3847C57.1242 27.9068 56.7715 28.2851 56.0713 27.7907C54.7266 26.8601 53.0267 26.3657 51.4206 26.7819C46.2448 28.0884 46.4782 37.2464 52.8262 37.2766C53.8786 37.2629 54.8987 36.9136 55.7364 36.2804ZM199.612 41.8291C199.404 41.8301 199.198 41.7903 199.006 41.7118C198.814 41.6334 198.639 41.5179 198.492 41.372C198.346 41.2262 198.229 41.0529 198.15 40.8621C198.071 40.6713 198.03 40.4668 198.031 40.2604L198.12 19.9695C198.119 19.7631 198.159 19.5585 198.238 19.3676C198.317 19.1766 198.433 19.0031 198.58 18.8571C198.726 18.711 198.901 18.5952 199.092 18.5165C199.284 18.4377 199.49 18.3975 199.698 18.3982H201.395C201.603 18.3975 201.809 18.4378 202.001 18.5167C202.193 18.5956 202.368 18.7116 202.514 18.8579C202.661 19.0043 202.777 19.1781 202.856 19.3693C202.935 19.5605 202.975 19.7654 202.973 19.972L202.884 40.2629C202.885 40.4692 202.845 40.6736 202.766 40.8644C202.687 41.0552 202.571 41.2285 202.424 41.3744C202.278 41.5203 202.103 41.6358 201.911 41.7143C201.72 41.7928 201.514 41.8327 201.306 41.8317L199.612 41.8291ZM190.731 39.476C188.889 41.191 187.134 42.0915 184.531 42.0915C179.269 42.0612 176.752 37.7306 176.752 32.8754L176.782 24.6204C176.781 24.4141 176.822 24.2097 176.901 24.019C176.98 23.8284 177.097 23.6552 177.244 23.5096C177.391 23.3639 177.565 23.2487 177.757 23.1705C177.949 23.0923 178.155 23.0528 178.363 23.0541H180.06C180.268 23.0531 180.473 23.093 180.665 23.1715C180.857 23.25 181.032 23.3655 181.178 23.5114C181.325 23.6572 181.441 23.8306 181.52 24.0214C181.599 24.2121 181.639 24.4166 181.638 24.6229L181.61 32.878C181.61 35.5817 183.072 37.7029 185.939 37.7029C188.806 37.7029 190.559 35.3194 190.587 32.6585V29.7101C190.564 29.5956 190.554 29.4788 190.559 29.3621L190.587 24.6809C190.586 24.4746 190.626 24.2702 190.705 24.0794C190.784 23.8886 190.9 23.7152 191.047 23.5694C191.194 23.4235 191.368 23.308 191.56 23.2295C191.752 23.151 191.957 23.1111 192.165 23.1121H193.839C194.047 23.1111 194.253 23.151 194.445 23.2295C194.637 23.308 194.811 23.4235 194.958 23.5694C195.104 23.7152 195.221 23.8886 195.3 24.0794C195.378 24.2702 195.419 24.4746 195.418 24.6809L195.362 40.2629C195.358 40.6752 195.189 41.069 194.893 41.358C194.598 41.6469 194.198 41.8073 193.784 41.8039H192.35C191.943 41.7913 191.556 41.6249 191.268 41.3386C190.98 41.0523 190.813 40.6676 190.8 40.2629L190.731 39.476ZM170.543 23.1121H173.819C174.026 23.1151 174.231 23.1588 174.422 23.241C174.612 23.3231 174.785 23.4419 174.929 23.5906C175.073 23.7392 175.186 23.9148 175.262 24.1071C175.337 24.2995 175.374 24.5048 175.369 24.7112V25.7856C175.366 26.1998 175.199 26.5962 174.905 26.8895C174.611 27.1829 174.212 27.3498 173.796 27.3544H170.513L170.454 40.1746C170.455 40.381 170.415 40.5856 170.336 40.7765C170.257 40.9674 170.141 41.1409 169.995 41.287C169.848 41.4331 169.674 41.5489 169.482 41.6276C169.29 41.7064 169.084 41.7466 168.876 41.7459H167.181C166.974 41.7466 166.768 41.7064 166.576 41.6277C166.384 41.5489 166.209 41.4332 166.062 41.2872C165.915 41.1411 165.799 40.9676 165.72 40.7767C165.641 40.5858 165.6 40.3811 165.601 40.1746L165.659 22.4437C165.659 18.5772 167.882 15.5229 171.86 15.1748C171.977 15.1748 172.063 15.1471 172.18 15.1471C172.414 15.132 172.648 15.132 172.882 15.1471H174.405C174.612 15.15 174.817 15.1938 175.007 15.2757C175.198 15.3577 175.37 15.4763 175.514 15.6247C175.658 15.7731 175.771 15.9483 175.847 16.1404C175.923 16.3324 175.959 16.5374 175.955 16.7436V17.7323C175.952 18.1478 175.785 18.5456 175.49 18.8396C175.195 19.1336 174.795 19.3003 174.377 19.3036H173.149C171.276 19.3036 170.487 20.7261 170.457 22.4715L170.543 23.1121ZM158.788 23.0541H162.379C162.793 23.0581 163.19 23.2255 163.48 23.5197C163.771 23.8138 163.932 24.2106 163.929 24.6229V25.6973C163.925 26.1096 163.756 26.5035 163.46 26.7924C163.165 27.0813 162.765 27.2417 162.351 27.2384H158.758L158.73 35.0823C158.73 36.5956 159.461 37.4658 160.981 37.4658H161.711C162.126 37.4704 162.522 37.6385 162.813 37.933C163.104 38.2275 163.265 38.6246 163.262 39.0371V40.1267C163.257 40.5388 163.088 40.9322 162.792 41.221C162.497 41.5098 162.098 41.6704 161.683 41.6677H160.308C160.054 41.6728 159.8 41.6627 159.547 41.6375C155.658 41.3852 153.932 38.8782 153.932 35.0975C153.963 30.0102 153.963 24.9533 153.991 19.8661C153.993 19.6617 154.035 19.4597 154.116 19.2717C154.196 19.0836 154.313 18.9132 154.46 18.7701C154.607 18.627 154.78 18.514 154.971 18.4377C155.162 18.3613 155.366 18.323 155.571 18.325H157.238C157.653 18.329 158.049 18.4965 158.34 18.7906C158.631 19.0847 158.792 19.4815 158.788 19.8938V23.0541ZM106.777 22.8498H110.367C110.781 22.8538 111.178 23.0212 111.468 23.3154C111.759 23.6095 111.92 24.0063 111.917 24.4186V25.4981C111.912 25.9102 111.744 26.3036 111.448 26.5924C111.152 26.8812 110.753 27.0418 110.339 27.0391H106.736V34.8856C106.736 36.3989 107.467 37.2691 108.986 37.2691H109.72C109.925 37.271 110.128 37.3132 110.317 37.3931C110.505 37.473 110.677 37.5891 110.82 37.7348C110.964 37.8805 111.078 38.0529 111.154 38.2421C111.231 38.4314 111.269 38.6338 111.267 38.8379V39.9123C111.263 40.3246 111.095 40.7184 110.799 41.0074C110.503 41.2963 110.104 41.4567 109.689 41.4533H108.608C104.366 41.4256 101.91 39.6222 101.91 34.8957C101.941 29.8085 101.941 24.749 101.969 19.6618C101.973 19.2493 102.142 18.8554 102.439 18.5665C102.735 18.2777 103.134 18.1174 103.549 18.1207H105.216C105.631 18.1254 106.027 18.2935 106.317 18.5881C106.607 18.8827 106.768 19.2797 106.764 19.692L106.777 22.8498ZM85.6648 25.0592C87.3901 23.4602 89.2625 22.4437 91.688 22.4437C96.9527 22.4715 99.6725 26.7314 99.6421 31.6572L99.6141 39.9123C99.6148 40.1188 99.5744 40.3235 99.4952 40.5144C99.416 40.7053 99.2996 40.8788 99.1527 41.0249C99.0058 41.1709 98.8313 41.2866 98.6392 41.3654C98.4471 41.4441 98.2413 41.4843 98.0335 41.4836H96.3387C96.1309 41.4843 95.9251 41.4441 95.733 41.3654C95.5409 41.2866 95.3664 41.1709 95.2195 41.0249C95.0726 40.8788 94.9562 40.7053 94.877 40.5144C94.7978 40.3235 94.7573 40.1188 94.758 39.9123L94.7885 31.7152C94.7885 29.0115 93.327 26.8903 90.46 26.8903C87.593 26.8903 85.8399 29.246 85.812 31.9195L85.7815 39.9123C85.7775 40.3246 85.609 40.7184 85.3132 41.0074C85.0173 41.2963 84.6181 41.4567 84.2034 41.4533H82.5365C82.1217 41.4493 81.7255 41.2819 81.4349 40.9878C81.1442 40.6936 80.9829 40.2968 80.9863 39.8846C81.0142 34.9134 81.0142 29.9144 81.0446 24.9432V24.2748C81.046 23.863 81.2115 23.4685 81.5049 23.1777C81.7983 22.887 82.1958 22.7237 82.6101 22.7237H84.0435C84.4509 22.7357 84.8382 22.902 85.1263 23.1884C85.4144 23.4748 85.5816 23.8598 85.5938 24.2647L85.6648 25.0592ZM137.776 25.261C139.501 23.6645 141.371 22.6455 143.799 22.6455C149.064 22.6758 151.781 26.9483 151.753 31.8615L151.722 40.1267C151.723 40.3331 151.683 40.5377 151.604 40.7286C151.526 40.9195 151.409 41.093 151.263 41.2391C151.116 41.3852 150.942 41.5009 150.75 41.5797C150.558 41.6585 150.352 41.6987 150.144 41.698H148.45C148.242 41.6987 148.036 41.6585 147.844 41.5797C147.652 41.501 147.477 41.3853 147.33 41.2393C147.183 41.0932 147.067 40.9197 146.988 40.7288C146.909 40.5378 146.868 40.3332 146.869 40.1267L146.899 31.9296C146.899 29.2259 145.435 27.1047 142.571 27.1047C139.706 27.1047 137.951 29.4579 137.92 32.1339L137.88 40.1267C137.875 40.5392 137.706 40.9331 137.41 41.2219C137.113 41.5108 136.714 41.6711 136.299 41.6677H134.632C134.218 41.6631 133.822 41.4953 133.532 41.2013C133.242 40.9072 133.081 40.5108 133.084 40.0989L133.143 24.4867C133.143 24.2815 133.185 24.0784 133.265 23.8892C133.345 23.7 133.462 23.5284 133.608 23.3842C133.755 23.24 133.93 23.1262 134.121 23.0492C134.312 22.9722 134.517 22.9336 134.723 22.9356H136.157C136.566 22.949 136.954 23.1174 137.242 23.4063C137.53 23.6953 137.695 24.0827 137.705 24.4892L137.776 25.261ZM69.7441 22.2974C64.0405 22.2672 60.0064 26.3657 59.976 32.0053C59.9481 37.7029 63.9238 41.7459 69.6857 41.7737C75.4476 41.8014 79.4817 37.7912 79.5096 32.0557C79.5401 26.454 75.4172 22.3252 69.7441 22.2974ZM117.088 33.9549C117.496 36.5704 120.013 37.6449 122.469 37.6751C123.7 37.6644 124.915 37.3972 126.036 36.8907C126.216 36.8177 126.392 36.7335 126.561 36.6385C127.147 36.3182 127.673 36.1164 128.2 36.6385C128.492 36.9286 128.756 37.2211 129.048 37.4809C129.323 37.7423 129.578 38.0248 129.809 38.3259C130.598 39.312 130.042 39.5466 129.137 40.1569C127.206 41.4357 124.692 42.0738 122.38 42.0738C116.182 42.0461 112.087 38.2905 112.087 32.0759C112.117 26.2018 116.21 22.3075 122.116 22.3353C128.142 22.3655 131.562 25.884 131.651 31.8716C131.679 33.4984 131.737 34.023 130.042 34.023L117.088 33.9549ZM69.7441 26.686C72.6973 26.686 74.656 29.246 74.656 32.0658C74.656 35.0016 72.814 37.3624 69.7136 37.3624C66.6132 37.3624 64.8017 34.9789 64.8017 32.0431C64.8017 29.1073 66.6741 26.686 69.7441 26.686ZM117.217 29.9144L126.927 29.9422C126.574 27.5284 124.557 26.57 122.248 26.57C119.939 26.57 117.935 27.647 117.217 29.9144Z" fill="#29303A"/>
</svg>
