<svg width="201" height="60" viewBox="0 0 201 60" fill="none" xmlns="http://www.w3.org/2000/svg">
<path d="M12.9197 18.5626L11.2495 24.7177L20.8095 18.5276L14.5571 41.8845L20.9071 41.8898L30.1436 7.39062" fill="#3395FF"/>
<path d="M2.62993 32.0702L0 41.8895H13.015L18.3406 21.9144L2.62993 32.0702ZM47.8392 23.4253C47.5211 24.6092 46.9082 25.4787 45.994 26.0341C45.0821 26.5883 43.8021 26.8665 42.1499 26.8665H36.9007L38.7437 19.9862H43.993C45.643 19.9862 46.7767 20.2623 47.3917 20.825C48.0068 21.3877 48.1553 22.2478 47.8392 23.437V23.4253ZM53.2741 23.2883C53.9422 20.8038 53.6664 18.8926 52.4448 17.5547C51.2253 16.2275 49.0853 15.5586 46.0312 15.5586H34.3163L27.2643 41.9012H32.9558L35.7978 31.2835H39.5306C40.3683 31.2835 41.0279 31.4215 41.5094 31.6869C41.9919 31.963 42.275 32.4408 42.362 33.1309L43.3779 41.9012H49.4755L48.4872 33.7255C48.2857 31.8993 47.4511 30.8269 45.9845 30.5084C47.8541 29.9669 49.4204 29.0644 50.6823 27.8115C51.9355 26.5677 52.8308 25.0089 53.2741 23.2989V23.2883ZM67.1088 32.4726C66.6316 34.2564 65.8998 35.6049 64.9104 36.5499C63.92 37.4948 62.7365 37.962 61.3558 37.962C59.9496 37.962 58.9963 37.5055 58.4926 36.5817C57.9878 35.658 57.9708 34.3201 58.4395 32.5682C58.9083 30.8163 59.6559 29.4466 60.6845 28.4591C61.7132 27.4717 62.9157 26.978 64.2964 26.978C65.675 26.978 66.6188 27.4558 67.096 28.4039C67.5839 29.3563 67.5945 30.7186 67.1173 32.4918L67.1088 32.4726ZM69.603 23.1503L68.8903 25.8153C68.5828 24.8597 67.9858 24.0953 67.1035 23.5219C66.219 22.9592 65.1246 22.6725 63.8192 22.6725C62.2179 22.6725 60.6803 23.0866 59.2063 23.9148C57.7322 24.7429 56.4385 25.9109 55.3356 27.4186C54.2327 28.9263 53.4268 30.6358 52.9072 32.5576C52.3981 34.49 52.2921 36.1782 52.5996 37.6435C52.9178 39.1194 53.5858 40.2448 54.6145 41.0305C55.6537 41.8269 56.9793 42.2197 58.6018 42.2197C59.8911 42.2263 61.1658 41.9471 62.3346 41.4022C63.4902 40.8803 64.518 40.1121 65.3463 39.1512L64.604 41.9288H70.1077L75.1332 23.1598H69.6189L69.603 23.1503ZM94.9107 23.1503H78.9053L77.7865 27.3337H87.0994L74.7875 37.9833L73.7355 41.9118H90.2574L91.3762 37.7284H81.3973L93.898 26.9196L94.9107 23.1503ZM108.999 32.4408C108.504 34.2883 107.769 35.6771 106.798 36.5817C105.828 37.4948 104.653 37.9514 103.273 37.9514C100.389 37.9514 99.441 36.1145 100.425 32.4408C100.913 30.6145 101.651 29.2417 102.637 28.3169C103.623 27.3889 104.819 26.9259 106.224 26.9259C107.602 26.9259 108.533 27.3857 109.013 28.3116C109.492 29.2353 109.488 30.6124 108.999 32.4387V32.4408ZM112.221 23.8564C110.953 23.0664 109.336 22.6714 107.364 22.6714C105.367 22.6714 103.518 23.0643 101.817 23.85C100.124 24.6308 98.6348 25.7963 97.4696 27.254C96.2713 28.7299 95.4091 30.4606 94.88 32.4355C94.3603 34.403 94.2967 36.1305 94.6997 37.6095C95.1027 39.0854 95.951 40.2215 97.2236 41.0072C98.5067 41.7993 100.14 42.1932 102.144 42.1932C104.117 42.1932 105.951 41.7961 107.637 41.0061C109.323 40.2119 110.766 39.0843 111.964 37.5978C113.162 36.1177 114.021 34.3913 114.551 32.4164C115.082 30.4415 115.145 28.7172 114.742 27.2349C114.339 25.7591 113.502 24.623 112.24 23.8319L112.221 23.8564ZM131.869 28.164L133.279 23.0568C132.802 22.8126 132.176 22.6852 131.391 22.6852C130.129 22.6852 128.921 22.9974 127.754 23.6302C126.751 24.1675 125.898 24.9256 125.177 25.8748L125.909 23.1248L124.311 23.1312H120.387L115.329 41.8927H120.91L123.535 32.0851C123.916 30.6591 124.603 29.5368 125.595 28.7405C126.581 27.941 127.811 27.5407 129.296 27.5407C130.208 27.5407 131.056 27.7499 131.862 28.1672L131.869 28.164ZM147.398 32.531C146.921 34.283 146.2 35.6208 145.213 36.5445C144.227 37.4725 143.039 37.9355 141.661 37.9355C140.282 37.9355 139.338 37.4683 138.84 36.5339C138.331 35.5943 138.32 34.2405 138.798 32.461C139.275 30.6825 140.007 29.3181 141.014 28.3731C142.021 27.4207 143.209 26.9451 144.588 26.9451C145.945 26.9451 146.857 27.4335 147.345 28.4209C147.833 29.4084 147.843 30.7781 147.375 32.53L147.398 32.531ZM151.277 23.8871C150.243 23.059 148.923 22.6449 147.322 22.6449C145.919 22.6449 144.581 22.9634 143.313 23.6068C142.046 24.2492 141.017 25.1252 140.227 26.2337L140.246 26.1063L141.183 23.1227H135.732L134.343 28.3147L134.3 28.4952L128.574 49.8836H134.162L137.047 39.1172C137.333 40.075 137.916 40.8267 138.807 41.3703C139.698 41.9118 140.798 42.1804 142.105 42.1804C143.728 42.1804 145.276 41.7876 146.745 41.0019C148.219 40.214 149.491 39.0801 150.573 37.6148C151.655 36.1496 152.457 34.4507 152.97 32.5289C153.489 30.6039 153.595 28.887 153.298 27.3846C152.996 25.8801 152.327 24.7153 151.294 23.8914L151.277 23.8871ZM169.815 32.4546C169.338 34.2278 168.606 35.5868 167.62 36.5212C166.634 37.4619 165.446 37.9302 164.067 37.9302C162.657 37.9302 161.702 37.4736 161.204 36.5499C160.695 35.6261 160.684 34.2883 161.151 32.5364C161.618 30.7844 162.362 29.4147 163.391 28.4273C164.419 27.4398 165.623 26.9472 167.004 26.9472C168.382 26.9472 169.315 27.425 169.803 28.37C170.291 29.3181 170.294 30.6804 169.819 32.4578L169.815 32.4546ZM172.307 23.1269L171.593 25.792C171.286 24.8311 170.692 24.0666 169.812 23.4985C168.921 22.9316 167.829 22.6491 166.524 22.6491C164.923 22.6491 163.377 23.0632 161.901 23.8914C160.427 24.7196 159.133 25.8812 158.03 27.3846C156.927 28.8881 156.121 30.6018 155.602 32.5236C155.087 34.4529 154.987 36.1443 155.294 37.6159C155.605 39.0811 156.274 40.213 157.309 41.0029C158.342 41.7887 159.674 42.1858 161.296 42.1858C162.601 42.1858 163.847 41.9139 165.029 41.3682C166.182 40.8439 167.207 40.0747 168.033 39.114L167.291 41.8938H172.795L177.819 23.1322H172.315L172.307 23.1269ZM200.925 23.1333L200.929 23.128H197.546C197.438 23.128 197.342 23.1333 197.244 23.1354H195.488L194.587 24.3883L194.364 24.6856L194.269 24.8342L187.137 34.7809L185.663 23.1333H179.822L182.781 40.8331L176.249 49.89H182.071L183.651 47.6465C183.695 47.5806 183.735 47.5254 183.788 47.4553L185.634 44.8328L185.687 44.7584L193.951 33.0258L200.918 23.1513L200.929 23.145H200.925V23.1333Z" fill="black"/>
</svg>
