<svg width="193" height="60" viewBox="0 0 193 60" fill="none" xmlns="http://www.w3.org/2000/svg">
<g clip-path="url(#clip0_7405_568)">
<path d="M77.3368 32.078L73.9817 23.3199C73.8448 22.9617 73.3216 22.9617 73.1844 23.3199L69.8299 32.0785C69.8061 32.1408 69.7982 32.2077 69.8069 32.2736C69.8155 32.3394 69.8405 32.4023 69.8797 32.4568C69.9189 32.5113 69.9711 32.5558 70.0318 32.5865C70.0926 32.6172 70.1602 32.6333 70.2287 32.6332H76.938C77.0066 32.6332 77.0741 32.6172 77.1349 32.5864C77.1957 32.5556 77.2479 32.5111 77.287 32.4566C77.3262 32.4021 77.3511 32.3392 77.3597 32.2733C77.3684 32.2074 77.3604 32.1405 77.3365 32.0782L77.3368 32.078ZM78.8867 37.0008H68.2804C68.1936 37.0008 68.1089 37.0265 68.0376 37.0745C67.9664 37.1225 67.912 37.1904 67.8818 37.2692L65.7937 42.7187C65.7635 42.7975 65.7092 42.8654 65.6379 42.9134C65.5667 42.9614 65.482 42.9871 65.3952 42.9871H60.7981C60.7286 42.9871 60.6602 42.9706 60.5988 42.939C60.5374 42.9075 60.485 42.8618 60.446 42.8061C60.4071 42.7503 60.3829 42.6862 60.3755 42.6193C60.3681 42.5524 60.3777 42.4847 60.4036 42.4223L70.9875 16.8897C71.0192 16.8134 71.0737 16.7481 71.1441 16.7021C71.2145 16.6561 71.2974 16.6316 71.3823 16.6317H75.7841C75.9576 16.6317 76.1138 16.7338 76.1787 16.8897L86.7623 42.422C86.7883 42.4845 86.798 42.5522 86.7907 42.6192C86.7833 42.6862 86.7591 42.7504 86.7202 42.8062C86.6812 42.862 86.6287 42.9077 86.5673 42.9393C86.5059 42.9709 86.4374 42.9874 86.3678 42.9874H81.7715C81.6847 42.9874 81.6 42.9616 81.5287 42.9136C81.4575 42.8655 81.4032 42.7975 81.373 42.7187L79.2846 37.2692C79.2544 37.1904 79.2001 37.1225 79.1288 37.0745C79.0576 37.0265 78.9729 37.0008 78.8861 37.0008H78.8867ZM88.9162 25.5923H92.8481C92.9608 25.5923 93.069 25.6357 93.1487 25.7129C93.2284 25.7901 93.2732 25.8948 93.2732 26.004V42.5754C93.2732 42.6846 93.2284 42.7893 93.1487 42.8665C93.069 42.9438 92.9608 42.9871 92.8481 42.9871H88.9162C88.8034 42.9871 88.6953 42.9438 88.6156 42.8665C88.5358 42.7893 88.491 42.6846 88.491 42.5754V26.0038C88.491 25.8946 88.5358 25.7898 88.6156 25.7126C88.6953 25.6354 88.8034 25.592 88.9162 25.592V25.5923ZM107.613 29.6233C107.613 29.7325 107.568 29.8372 107.488 29.9144C107.409 29.9917 107.301 30.035 107.188 30.035H107.069C105.125 30.035 103.699 30.4868 102.792 31.3904C101.884 32.294 101.431 33.7877 101.431 35.871V42.5754C101.431 42.6846 101.386 42.7893 101.307 42.8665C101.227 42.9438 101.119 42.9871 101.006 42.9871H97.1127C97 42.9871 96.8918 42.9438 96.8121 42.8665C96.7323 42.7893 96.6875 42.6846 96.6875 42.5754V26.0038C96.6875 25.8946 96.7323 25.7898 96.8121 25.7126C96.8918 25.6354 97 25.592 97.1127 25.592H100.967C101.08 25.592 101.188 25.6354 101.268 25.7126C101.347 25.7898 101.392 25.8946 101.392 26.0038V29.2816H101.47C101.937 27.9262 102.675 26.8851 103.687 26.1566C104.697 25.429 105.941 25.0648 107.419 25.0648H107.613V29.623V29.6233ZM118.364 29.4702C118.251 29.4702 118.143 29.5135 118.063 29.5907C117.984 29.668 117.939 29.7727 117.939 29.8819V36.7746C117.939 37.4775 118.08 37.9795 118.366 38.2806C118.651 38.5817 119.144 38.7324 119.843 38.7324H120.235C120.348 38.7324 120.456 38.7758 120.536 38.853C120.615 38.9302 120.66 39.035 120.66 39.1442V42.6127C120.66 42.7219 120.615 42.8267 120.536 42.9039C120.456 42.9811 120.348 43.0245 120.235 43.0245H118.56C116.824 43.0245 115.489 42.5916 114.556 41.7256C113.623 40.8596 113.156 39.5737 113.156 37.8665V29.8819C113.156 29.7727 113.111 29.668 113.031 29.5907C112.952 29.5135 112.844 29.4702 112.731 29.4702H110.277C110.164 29.4702 110.056 29.4268 109.976 29.3496C109.896 29.2724 109.851 29.1676 109.851 29.0584V26.0038C109.851 25.8946 109.896 25.7898 109.976 25.7126C110.056 25.6354 110.164 25.592 110.277 25.592H112.731C112.844 25.592 112.952 25.5487 113.032 25.4715C113.111 25.3942 113.156 25.2895 113.156 25.1803V19.0383C113.156 18.9291 113.201 18.8244 113.281 18.7472C113.361 18.67 113.469 18.6266 113.581 18.6266H117.513C117.626 18.6266 117.734 18.67 117.814 18.7472C117.894 18.8244 117.938 18.9291 117.938 19.0383V25.1803C117.938 25.2895 117.983 25.3942 118.063 25.4715C118.143 25.5487 118.251 25.592 118.364 25.592H121.207C121.32 25.592 121.428 25.6354 121.507 25.7126C121.587 25.7898 121.632 25.8946 121.632 26.0038V29.0587C121.632 29.1679 121.587 29.2726 121.507 29.3498C121.428 29.427 121.32 29.4704 121.207 29.4704H118.364V29.4702ZM136.368 37.8289C137.263 36.9253 137.71 35.7456 137.71 34.2894C137.71 32.8342 137.263 31.6539 136.368 30.7503C135.474 29.8467 134.301 29.3949 132.849 29.3949C131.398 29.3949 130.225 29.8467 129.331 30.7503C128.437 31.6539 127.99 32.8342 127.99 34.2894C127.99 35.7456 128.437 36.9253 129.331 37.8289C130.225 38.7324 131.398 39.1842 132.849 39.1842C134.301 39.1842 135.474 38.7324 136.368 37.8289ZM127.29 42.4599C125.968 41.7322 124.924 40.6714 124.16 39.2784C123.395 37.8854 123.013 36.2226 123.013 34.2894C123.013 32.3571 123.395 30.6938 124.16 29.3008C124.924 27.9078 125.968 26.8478 127.29 26.1193C128.612 25.3914 130.063 25.0274 131.644 25.0274C133.044 25.0274 134.242 25.2909 135.241 25.8179C136.238 26.3449 137.035 27.0858 137.632 28.0396H137.71V26.0038C137.71 25.8946 137.754 25.7898 137.834 25.7126C137.914 25.6354 138.022 25.592 138.135 25.592H142.028C142.14 25.592 142.249 25.6354 142.328 25.7126C142.408 25.7898 142.453 25.8946 142.453 26.0038V42.5751C142.453 42.6843 142.408 42.7891 142.328 42.8663C142.249 42.9435 142.14 42.9869 142.028 42.9869H138.135C138.022 42.9869 137.914 42.9435 137.834 42.8663C137.754 42.7891 137.71 42.6843 137.71 42.5751V40.5396H137.632C137.035 41.494 136.238 42.234 135.241 42.761C134.242 43.288 133.044 43.5515 131.644 43.5515C130.063 43.5515 128.612 43.1875 127.29 42.4599ZM158.644 37.8289C159.538 36.9253 159.985 35.7456 159.985 34.2894C159.985 32.8342 159.538 31.6539 158.644 30.7503C157.75 29.8467 156.577 29.3949 155.125 29.3949C153.673 29.3949 152.501 29.8467 151.607 30.7503C150.713 31.6539 150.265 32.8342 150.265 34.2894C150.265 35.7456 150.713 36.9253 151.607 37.8289C152.501 38.7324 153.673 39.1842 155.125 39.1842C156.577 39.1842 157.75 38.7324 158.644 37.8289ZM152.734 42.761C151.736 42.234 150.939 41.494 150.343 40.5396H150.265V42.5751C150.265 42.6843 150.22 42.7891 150.141 42.8663C150.061 42.9435 149.953 42.9869 149.84 42.9869H145.908C145.795 42.9869 145.687 42.9435 145.607 42.8663C145.528 42.7891 145.483 42.6843 145.483 42.5751V17.0426C145.483 16.9334 145.528 16.8287 145.607 16.7514C145.687 16.6742 145.795 16.6309 145.908 16.6309H149.84C149.953 16.6309 150.061 16.6742 150.141 16.7514C150.22 16.8287 150.265 16.9334 150.265 17.0426V28.0393H150.343C150.939 27.0855 151.736 26.3449 152.734 25.8179C153.732 25.2907 154.931 25.0272 156.331 25.0272C157.911 25.0272 159.363 25.3911 160.685 26.119C162.007 26.8475 163.05 27.9075 163.815 29.3003C164.579 30.6941 164.962 32.3574 164.962 34.2897C164.962 36.2229 164.579 37.8854 163.815 39.2786C163.05 40.6716 162.007 41.7325 160.685 42.4599C159.363 43.1878 157.912 43.552 156.331 43.552C154.931 43.552 153.732 43.2885 152.734 42.7612L152.734 42.761ZM171.587 42.9871H167.655C167.542 42.9871 167.434 42.9438 167.354 42.8665C167.275 42.7893 167.23 42.6846 167.23 42.5754V17.0434C167.23 16.9342 167.275 16.8295 167.354 16.7523C167.434 16.6751 167.542 16.6317 167.655 16.6317H171.587C171.7 16.6317 171.808 16.6751 171.887 16.7523C171.967 16.8295 172.012 16.9342 172.012 17.0434V42.5754C172.012 42.6846 171.967 42.7893 171.887 42.8665C171.808 42.9438 171.7 42.9871 171.587 42.9871ZM180.862 29.6211C180.21 30.1135 179.769 30.8244 179.542 31.7544C179.479 32.0107 179.686 32.2567 179.958 32.2567H187.44C187.7 32.2567 187.904 32.0316 187.862 31.7835C187.713 30.9038 187.323 30.2025 186.694 29.6777C185.955 29.0628 184.989 28.7554 183.797 28.7554C182.604 28.7554 181.626 29.0439 180.862 29.6211ZM190.445 27.456C191.975 29.0755 192.739 31.366 192.739 34.3273V34.8192C192.739 34.9284 192.695 35.0331 192.615 35.1103C192.535 35.1875 192.427 35.2309 192.314 35.2309H179.813C179.751 35.231 179.69 35.2443 179.633 35.2698C179.577 35.2953 179.527 35.3325 179.487 35.3786C179.447 35.4248 179.417 35.4789 179.401 35.5371C179.385 35.5953 179.382 35.6562 179.392 35.7156C179.592 36.8158 180.095 37.6897 180.9 38.3372C181.82 39.0783 182.981 39.448 184.38 39.448C186.187 39.448 187.86 38.7651 189.398 37.399C189.586 37.2321 189.883 37.2675 190.029 37.4704L191.941 40.1273C192.001 40.21 192.027 40.3111 192.015 40.4114C192.003 40.5117 191.953 40.6042 191.875 40.6714C190.937 41.4667 189.894 42.1378 188.773 42.6671C187.529 43.2567 186.065 43.552 184.38 43.552C182.436 43.552 180.738 43.1688 179.287 42.4036C177.835 41.6383 176.707 40.5591 175.904 39.1656C175.101 37.7726 174.699 36.16 174.699 34.3273C174.699 32.4955 175.088 30.8766 175.865 29.4704C176.643 28.0651 177.732 26.9732 179.131 26.1948C180.531 25.4172 182.164 25.0277 184.03 25.0277C186.777 25.0277 188.916 25.8374 190.445 27.456ZM93.7868 19.466C93.7868 21.019 92.4867 22.278 90.8827 22.278C89.2784 22.278 87.9783 21.019 87.9783 19.4657C87.9783 17.9124 89.2787 16.6534 90.8827 16.6534C92.4867 16.6534 93.7868 17.9124 93.7868 19.4657" fill="#333333"/>
<path d="M22.3921 9.20526L3.69643 16.6966C2.65677 17.1133 2.66754 18.5436 3.71372 18.9451L22.4874 26.1546C24.1368 26.7881 25.9738 26.7881 27.6233 26.1546L46.3972 18.9449C47.4431 18.5436 47.4545 17.1135 46.4142 16.6969L27.7191 9.20498C26.0135 8.52152 24.0975 8.52152 22.3918 9.20498" fill="#FCB400"/>
<path d="M21.8357 31.0202L15.6272 33.923L14.9968 34.2181L1.89111 40.2992C1.06063 40.6873 0 40.101 0 39.2073V22.3033C0 21.9799 0.171198 21.7008 0.400784 21.4908C0.494972 21.4 0.601826 21.3224 0.718237 21.2602C1.03116 21.0783 1.47786 21.0297 1.85767 21.1751L21.7314 28.8007C22.7415 29.1888 22.8209 30.5596 21.8357 31.0204" fill="#F82B60"/>
<path d="M21.8358 31.0201L15.6273 33.923L0.400879 21.4905C0.495085 21.3998 0.601939 21.3223 0.718332 21.2602C1.03125 21.0783 1.47795 21.0297 1.85776 21.1751L21.7315 28.8007C22.7416 29.1888 22.821 30.5596 21.8358 31.0204" fill="black" fill-opacity="0.25"/>
<path d="M26.7207 30.0918V48.1022C26.7207 48.9586 27.6127 49.5454 28.435 49.2298L49.3546 41.3665C49.5879 41.2769 49.788 41.1216 49.929 40.9205C50.07 40.7194 50.1454 40.482 50.1454 40.239V22.2288C50.1454 21.3721 49.2534 20.7856 48.4311 21.1012L27.5115 28.9645C27.2782 29.0541 27.0781 29.2095 26.9371 29.4105C26.7961 29.6116 26.7207 29.849 26.7207 30.092" fill="#18BFFF"/>
</g>
<defs>
<clipPath id="clip0_7405_568">
<rect width="193" height="60" fill="white"/>
</clipPath>
</defs>
</svg>
