<svg width="165" height="34" viewBox="0 0 165 34" fill="none" xmlns="http://www.w3.org/2000/svg">
<g clip-path="url(#clip0_7429_1409)">
<path fill-rule="evenodd" clip-rule="evenodd" d="M1.4427 20.1019C3.23261 21.919 6.13475 21.919 7.92465 20.1019C9.71413 18.2848 9.71413 15.3375 7.92465 13.5204C6.13475 11.7033 3.23261 11.7033 1.4427 13.5204C-0.346784 15.3375 -0.346784 18.2848 1.4427 20.1019ZM19.897 25.6779C18.1075 23.8608 15.2049 23.8608 13.4155 25.6779C11.6264 27.495 11.6264 30.4423 13.4155 32.2594C15.2054 34.0765 18.1075 34.0765 19.8974 32.2594C21.6869 30.4419 21.6869 27.495 19.897 25.6779ZM25.3882 13.5204C23.5987 15.3375 23.5987 18.2848 25.3882 20.1019C27.1781 21.919 30.0804 21.919 31.8697 20.1019C33.6598 18.2848 33.6598 15.3375 31.8697 13.5204C30.0807 11.7033 27.1781 11.7033 25.3882 13.5204ZM13.4155 1.36287C11.6264 3.17996 11.6264 6.12689 13.4155 7.9444C15.2054 9.76149 18.1075 9.76149 19.8974 7.9444C21.6819 6.13158 21.6869 3.19443 19.9108 1.3765C19.9062 1.37182 19.9021 1.36713 19.897 1.36245C18.1075 -0.454222 15.2049 -0.454218 13.4155 1.36287ZM7.92465 1.36287C7.34715 0.776894 6.65482 0.37944 5.9206 0.171772C5.91013 0.168793 5.8988 0.165803 5.88792 0.162824C5.51115 0.0598417 5.11511 0.0040949 4.70693 0.00324302H4.69646C2.17274 0.00324302 0.125941 2.08163 0.120074 4.64684C0.120074 4.65024 0.120074 4.65364 0.120074 4.65747C0.120074 6.79798 1.5416 8.60145 3.47693 9.14404C3.865 9.25297 4.27402 9.31128 4.69646 9.31128C5.5233 9.31128 6.28185 9.38447 6.97165 9.53001C9.65589 10.0964 11.2966 11.7607 11.8573 14.4868C11.9839 15.1021 12.0551 15.7715 12.0715 16.4941C12.0648 16.595 12.0618 16.6971 12.0618 16.7996C12.0618 17.6473 11.9885 18.4244 11.8431 19.1305C11.2819 21.8488 9.64499 23.511 6.9683 24.0809C6.27305 24.229 5.5078 24.303 4.67257 24.303C3.48321 24.303 2.39444 24.7707 1.57722 25.534C1.53406 25.5825 1.4888 25.6307 1.4427 25.6774C-0.270092 27.4167 -0.343432 30.1912 1.22268 32.0193C1.29308 32.1015 1.36643 32.1816 1.4427 32.259C2.19034 33.0131 3.19237 33.5072 4.30671 33.5965L4.85738 33.6067C7.30232 33.5083 9.25607 31.4636 9.25607 28.9567C9.25607 28.8652 9.25691 28.7738 9.25858 28.6835C9.27242 27.9469 9.34408 27.2659 9.47189 26.6405C10.031 23.9084 11.6738 22.2407 14.3643 21.6725C14.969 21.5449 15.6274 21.4731 16.3381 21.4572C16.3239 21.4561 16.3092 21.4551 16.2946 21.4534L16.3616 21.4548L16.3809 21.4565L16.4044 21.4561C16.4802 21.4548 16.5565 21.4538 16.6336 21.4538L16.4069 21.4561L16.6554 21.4606H16.6571L16.9525 21.4551L17.0167 21.4538C16.9597 21.4585 16.9022 21.4619 16.8452 21.464L16.7803 21.4629C16.7417 21.464 16.7032 21.4646 16.665 21.465C17.494 21.465 18.2542 21.5381 18.9452 21.685C21.6282 22.2526 23.2672 23.9182 23.8267 26.6456C23.9713 27.3494 24.0438 28.1239 24.0438 28.9682C24.0438 30.2154 24.5262 31.3484 25.3119 32.1836C25.338 32.2084 25.3634 32.2335 25.3887 32.259C26.2344 33.1173 27.3282 33.5705 28.4358 33.6183C28.4371 33.6177 28.4387 33.6183 28.44 33.6183L28.9856 33.6081C30.0978 33.5181 31.0986 33.0242 31.8446 32.2705C32.7075 31.393 33.1966 30.2116 33.1966 28.9682C33.1966 26.4429 31.1859 24.3667 28.7137 24.3153C28.6822 24.3143 28.6512 24.3143 28.6197 24.3143C27.7912 24.3143 27.0315 24.2412 26.3408 24.0949C23.6574 23.5271 22.0184 21.8611 21.4585 19.1339C21.321 18.464 21.249 17.7303 21.2422 16.9333C21.2431 16.8937 21.2435 16.8541 21.2435 16.8141C21.2435 15.9686 21.316 15.1928 21.4619 14.4885C22.0221 11.7658 23.6608 10.1015 26.3421 9.53213C27.0365 9.38489 27.8001 9.31084 28.6327 9.31084C29.846 9.31084 30.9491 8.8321 31.7689 8.05037C31.802 8.01463 31.8355 7.97931 31.8697 7.9444C33.6598 6.12689 33.6598 3.17955 31.8697 1.36287C31.8663 1.35904 31.8626 1.35564 31.8596 1.35224C31.8509 1.34288 31.8422 1.33352 31.8325 1.325C31.0065 0.5071 29.8774 0.00324302 28.6327 0.00324302H28.6223C26.096 0.00920057 24.0498 2.09098 24.0498 4.65704C24.0498 4.70938 24.0492 4.76215 24.0488 4.81408C24.0405 5.59708 23.9685 6.31882 23.8331 6.97842C23.2731 9.70575 21.6321 11.3718 18.9461 11.9403C18.3393 12.0684 17.6792 12.1408 16.9659 12.1569C16.9165 12.1582 16.867 12.159 16.8176 12.1595C16.8138 12.1595 16.8104 12.1595 16.8067 12.159C16.7631 12.1582 16.7195 12.1569 16.6755 12.1569C16.6722 12.1569 16.6688 12.1569 16.665 12.1569C16.6353 12.1569 16.6051 12.1573 16.5754 12.1582C16.5536 12.1586 16.5309 12.159 16.5087 12.1599C16.5079 12.1599 16.507 12.1599 16.5062 12.1599C16.4471 12.1595 16.3884 12.1582 16.3298 12.1569C15.6236 12.1403 14.969 12.0675 14.3672 11.9399C11.6855 11.3705 10.0477 9.70405 9.48908 6.97544C9.34534 6.27243 9.27283 5.49963 9.27283 4.65704C9.27283 3.41103 8.79173 2.27951 8.00678 1.44416C7.97914 1.41777 7.95189 1.39053 7.92465 1.36287Z" fill="#384BFF"/>
<path d="M55.3972 31H42.0684C41.4977 31 41.2124 30.6952 41.2124 30.0855V3.91446C41.2124 3.30482 41.4977 3 42.0684 3H55.3972C55.9406 3 56.2124 3.30482 56.2124 3.91446V6.87558C56.2124 7.48523 55.9406 7.79005 55.3972 7.79005H46.8782C46.5521 7.79005 46.389 7.94972 46.389 8.26905V13.93C46.389 14.2493 46.5521 14.409 46.8782 14.409H53.8483C54.4189 14.409 54.7042 14.7138 54.7042 15.3235V18.2846C54.7042 18.8942 54.4189 19.1991 53.8483 19.1991H46.8782C46.5521 19.1991 46.389 19.3588 46.389 19.6781V25.7309C46.389 26.0502 46.5521 26.21 46.8782 26.21H55.3972C55.9406 26.21 56.2124 26.5148 56.2124 27.1244V30.0855C56.2124 30.6952 55.9406 31 55.3972 31Z" fill="black"/>
<path d="M64.225 31H59.9631C59.2316 31 59.0348 30.698 59.3723 30.0941L64.6892 19.7843L59.3723 9.90588C59.091 9.30196 59.2597 9 59.8787 9H64.1828C64.858 9 65.294 9.30196 65.491 9.90588L68.1494 16.4627H68.3182L70.639 9.90588C70.8359 9.30196 71.272 9 71.9472 9H76.1669C76.8983 9 77.0811 9.30196 76.7155 9.90588L71.6518 19.7843L77.0953 30.0941C77.2359 30.3529 77.2499 30.5686 77.1374 30.7412C77.0531 30.9137 76.8701 31 76.5889 31H72.2425C71.6518 31 71.2298 30.698 70.9766 30.0941L68.3182 23.4941H68.1494L65.491 30.0941C65.294 30.698 64.872 31 64.225 31Z" fill="black"/>
<path d="M80.6905 14.0455H79.0655C78.7405 14.0455 78.5103 13.989 78.3749 13.876C78.2665 13.7629 78.2124 13.5369 78.2124 13.1978V10.2732C78.2124 9.67975 78.4968 9.38305 79.0655 9.38305H80.6905C80.9884 9.38305 81.1374 9.22762 81.1374 8.9168V4.89011C81.1374 4.2967 81.4353 4 82.0312 4H85.4437C86.0124 4 86.2968 4.2967 86.2968 4.89011V8.9168C86.2968 9.22762 86.4593 9.38305 86.7843 9.38305H89.953C90.5218 9.38305 90.8062 9.67975 90.8062 10.2732V13.1978C90.8062 13.5086 90.7384 13.7347 90.603 13.876C90.4946 13.989 90.278 14.0455 89.953 14.0455H86.7843C86.4593 14.0455 86.2968 14.2009 86.2968 14.5118V23.8791C86.2968 24.7552 86.4863 25.3909 86.8655 25.7865C87.2446 26.1539 87.8675 26.3375 88.7343 26.3375H90.3593C90.928 26.3375 91.2124 26.6342 91.2124 27.2276V30.1523C91.2124 30.4631 91.1446 30.6892 91.0093 30.8305C90.9009 30.9435 90.6843 31 90.3593 31H87.8812C85.7415 31 84.0759 30.4066 82.8843 29.2198C81.7196 28.033 81.1374 26.3375 81.1374 24.1334V14.5118C81.1374 14.2009 80.9884 14.0455 80.6905 14.0455Z" fill="black"/>
<path d="M111.256 31H102.071C99.8815 31 98.1911 30.3961 96.9997 29.1882C95.8081 27.9804 95.2124 26.2406 95.2124 23.9686V16.0314C95.2124 13.7595 95.8081 12.0196 96.9997 10.8118C98.1911 9.60392 99.8815 9 102.071 9H105.354C107.543 9 109.234 9.60392 110.425 10.8118C111.617 12.0196 112.212 13.7595 112.212 16.0314V21.5098C112.212 22.1137 111.921 22.4157 111.34 22.4157H100.907C100.574 22.4157 100.408 22.5739 100.408 22.8902V23.8392C100.408 24.7308 100.588 25.3778 100.948 25.7804C101.336 26.1543 101.974 26.3412 102.86 26.3412H111.256C111.838 26.3412 112.129 26.6575 112.129 27.2902V30.1373C112.129 30.4535 112.06 30.6837 111.921 30.8275C111.811 30.9425 111.589 31 111.256 31ZM100.907 18.749H106.56C106.864 18.749 107.017 18.5908 107.017 18.2745V16.2039C107.017 15.2837 106.837 14.6366 106.476 14.2627C106.116 13.8889 105.493 13.702 104.606 13.702H102.86C101.974 13.702 101.35 13.8889 100.99 14.2627C100.63 14.6366 100.45 15.2837 100.45 16.2039V18.2745C100.45 18.5908 100.602 18.749 100.907 18.749Z" fill="black"/>
<path d="M130.212 27.1608V30.1373C130.212 30.4535 130.138 30.6837 129.989 30.8275C129.869 30.9425 129.63 31 129.272 31H122.6C120.242 31 118.421 30.3961 117.138 29.1882C115.854 27.9804 115.212 26.2406 115.212 23.9686V16.0314C115.212 13.7595 115.854 12.0196 117.138 10.8118C118.421 9.60392 120.242 9 122.6 9H129.272C129.899 9 130.212 9.30196 130.212 9.90588V12.8824C130.212 13.1987 130.138 13.4288 129.989 13.5725C129.869 13.6876 129.63 13.7451 129.272 13.7451H123.496C122.571 13.7451 121.899 13.9464 121.481 14.349C121.093 14.7229 120.899 15.3699 120.899 16.2902V23.7098C120.899 24.63 121.093 25.2916 121.481 25.6941C121.899 26.068 122.571 26.2549 123.496 26.2549H129.272C129.899 26.2549 130.212 26.5569 130.212 27.1608Z" fill="black"/>
<path d="M137.777 31H134.117C133.514 31 133.212 30.7013 133.212 30.1038V1.89616C133.212 1.29872 133.514 1 134.117 1H137.777C138.38 1 138.681 1.29872 138.681 1.89616V11.5405H138.854C139.485 10.0043 140.892 9.23613 143.074 9.23613H144.452C148.959 9.23613 151.212 11.5548 151.212 16.192V30.1038C151.212 30.7013 150.896 31 150.265 31H146.648C146.045 31 145.743 30.7013 145.743 30.1038V16.4481C145.743 15.5377 145.542 14.8976 145.141 14.5277C144.767 14.1295 144.121 13.9303 143.203 13.9303H141.653C139.672 13.9303 138.681 15.0114 138.681 17.1735V30.1038C138.681 30.7013 138.38 31 137.777 31Z" fill="black"/>
</g>
<defs>
<clipPath id="clip0_7429_1409">
<rect width="165" height="34" fill="white"/>
</clipPath>
</defs>
</svg>
