<svg width="40" height="40" viewBox="0 0 40 40" fill="none" xmlns="http://www.w3.org/2000/svg">
<path d="M5.57579 17.6358H1.57579C1.21215 17.6358 0.969727 17.8782 0.969727 18.2419V38.2419C0.969727 38.6055 1.21215 38.8479 1.57579 38.8479H5.57579C5.93942 38.8479 6.18185 38.6055 6.18185 38.2419V18.2419C6.18185 17.9388 5.87882 17.6358 5.57579 17.6358ZM4.96973 37.6358H2.18185V18.8479H4.96973V37.6358ZM13.8182 22.4843H9.81821C9.45458 22.4843 9.21215 22.7267 9.21215 23.0903V38.2419C9.21215 38.6055 9.45458 38.8479 9.81821 38.8479H13.8182C14.1818 38.8479 14.4243 38.6055 14.4243 38.2419V23.0903C14.4243 22.7873 14.1212 22.4843 13.8182 22.4843ZM13.2122 37.6358H10.4243V23.6964H13.2122V37.6358ZM22 27.3328H18C17.6364 27.3328 17.394 27.5752 17.394 27.9388V38.2419C17.394 38.6055 17.6364 38.8479 18 38.8479H22C22.3637 38.8479 22.6061 38.6055 22.6061 38.2419V27.9388C22.6061 27.6358 22.3637 27.3328 22 27.3328ZM21.394 37.6358H18.6061V28.5449H21.394V37.6358ZM30.2425 30.9691H26.2425C25.8788 30.9691 25.6364 31.2116 25.6364 31.5752V38.2419C25.6364 38.6055 25.8788 38.8479 26.2425 38.8479H30.2425C30.6061 38.8479 30.8485 38.6055 30.8485 38.2419V31.5752C30.8485 31.2722 30.5455 30.9691 30.2425 30.9691ZM29.6364 37.6358H26.8485V32.1813H29.6364V37.6358ZM38.4243 34.6055H34.4243C34.0606 34.6055 33.8182 34.8479 33.8182 35.2116V38.2419C33.8182 38.6055 34.0606 38.8479 34.4243 38.8479H38.4243C38.7879 38.8479 39.0303 38.6055 39.0303 38.2419V35.2116C39.0303 34.9085 38.7879 34.6055 38.4243 34.6055ZM37.8182 37.6358H35.0303V35.8176H37.8182V37.6358ZM34.9697 13.2722H25.8788V4.18126C25.8788 3.81762 25.6364 3.5752 25.2728 3.5752C19.5758 3.5752 14.9697 8.18126 14.9697 13.8782C14.9697 19.5752 19.5758 24.1813 25.2728 24.1813C30.9697 24.1813 35.5758 19.5752 35.5758 13.8782C35.5758 13.5752 35.2728 13.2722 34.9697 13.2722ZM25.2728 22.9691C20.2425 22.9691 16.1818 18.9085 16.1818 13.8782C16.1818 9.09035 19.9394 5.09035 24.6667 4.78732V13.8782C24.6667 14.2419 24.9091 14.4843 25.2728 14.4843H34.3637C34 19.2116 30.0606 22.9691 25.2728 22.9691Z" fill="#384BFF"/>
<path d="M27.6969 12.0605H37.3939C37.7575 12.0605 37.9999 11.818 37.9999 11.4544C37.9999 5.75743 33.3939 1.15137 27.6969 1.15137C27.3332 1.15137 27.0908 1.39379 27.0908 1.75743V11.4544C27.0908 11.818 27.3332 12.0605 27.6969 12.0605ZM28.3029 2.42409C32.8484 2.72712 36.4848 6.36349 36.7878 10.9089H28.3029V2.42409Z" fill="#384BFF"/>
</svg>
