<svg width="40" height="40" viewBox="0 0 40 40" fill="none" xmlns="http://www.w3.org/2000/svg">
<path d="M32.499 29.4315L22.7221 9.87747C23.869 9.03701 24.6155 7.68101 24.6155 6.15347C24.6155 3.60855 22.545 1.53809 20.0001 1.53809C17.4552 1.53809 15.3847 3.60855 15.3847 6.15347C15.3847 7.68101 16.1313 9.03701 17.278 9.87755L7.50111 29.4315C4.53511 28.5243 1.53857 30.758 1.53857 33.8458C1.53857 36.3907 3.60904 38.4612 6.15396 38.4612C8.43673 38.4612 10.3366 36.7949 10.704 34.615H29.2963C29.6637 36.7949 31.5636 38.4612 33.8463 38.4612C36.3912 38.4612 38.4617 36.3907 38.4617 33.8458C38.4617 30.7566 35.4637 28.5249 32.499 29.4315ZM20.0001 3.07655C21.6967 3.07655 23.077 4.45686 23.077 6.15347C23.077 7.85009 21.6967 9.23039 20.0001 9.23039C18.3035 9.23039 16.9232 7.85009 16.9232 6.15347C16.9232 4.45686 18.3035 3.07655 20.0001 3.07655ZM18.653 10.5678C19.531 10.8359 20.4691 10.8359 21.3472 10.5678L31.1242 30.1217C30.1742 30.818 29.4999 31.8682 29.2962 33.0765H10.704C10.5003 31.8682 9.82604 30.818 8.87604 30.1217L18.653 10.5678ZM6.15396 36.9227C4.45734 36.9227 3.07704 35.5424 3.07704 33.8458C3.07704 32.1492 4.45734 30.7689 6.15396 30.7689C7.85057 30.7689 9.23088 32.1492 9.23088 33.8458C9.23088 35.5424 7.85057 36.9227 6.15396 36.9227ZM33.8463 36.9227C32.1497 36.9227 30.7693 35.5424 30.7693 33.8458C30.7693 32.1492 32.1497 30.7689 33.8463 30.7689C35.5429 30.7689 36.9232 32.1492 36.9232 33.8458C36.9232 35.5424 35.5429 36.9227 33.8463 36.9227ZM5.38473 5.38424H6.92319V6.9227H5.38473V5.38424ZM5.38473 8.46116H6.92319V9.99962H5.38473V8.46116ZM5.38473 11.5381H6.92319V13.0765H5.38473V11.5381ZM5.38473 14.615H6.92319V16.1535H5.38473V14.615ZM5.38473 17.6919H6.92319V19.2304H5.38473V17.6919ZM33.077 9.99962H34.6155V11.5381H33.077V9.99962ZM33.077 13.0765H34.6155V14.615H33.077V13.0765ZM33.077 16.1535H34.6155V17.6919H33.077V16.1535ZM33.077 19.2304H34.6155V20.7689H33.077V19.2304Z" fill="#384BFF"/>
<path d="M33.0771 22.3075H34.6156V23.8459H33.0771V22.3075ZM13.8459 26.923C14.1355 26.923 14.4129 26.7586 14.5434 26.4789L19.928 14.9405C20.1077 14.5555 19.9413 14.0978 19.5563 13.9181C19.1713 13.7384 18.7135 13.9048 18.5339 14.2898L13.1493 25.8283C12.9096 26.3418 13.2899 26.923 13.8459 26.923Z" fill="#384BFF"/>
</svg>
