<svg width="40" height="40" viewBox="0 0 40 40" fill="none" xmlns="http://www.w3.org/2000/svg">
<g clip-path="url(#clip0_7433_1467)">
<path d="M27.3596 20.8718C27.2705 20.7892 27.1594 20.7344 27.0396 20.714C26.9199 20.6936 26.7969 20.7085 26.6855 20.7569C26.5741 20.8053 26.4792 20.8851 26.4125 20.9865C26.3457 21.0879 26.31 21.2066 26.3096 21.3281V38.3281C26.3097 38.4318 26.3357 38.5338 26.3851 38.625C26.4345 38.7161 26.5058 38.7936 26.5926 38.8503C26.6794 38.907 26.779 38.9413 26.8823 38.9499C26.9857 38.9586 27.0895 38.9414 27.1846 38.9L30.5564 37.4312L31.4939 39.6187C31.5622 39.7685 31.6867 39.8854 31.8406 39.9439C31.9945 40.0024 32.1653 39.9979 32.3158 39.9312L36.8752 37.9656C37.025 37.8974 37.1419 37.7728 37.2004 37.6189C37.2589 37.465 37.2544 37.2942 37.1877 37.1437L36.2502 34.9562L39.6221 33.4875C39.7172 33.4459 39.8005 33.3814 39.8645 33.2996C39.9284 33.2179 39.971 33.1215 39.9884 33.0191C40.0058 32.9168 39.9974 32.8117 39.964 32.7135C39.9306 32.6152 39.8732 32.5268 39.7971 32.4562L27.3596 20.8718ZM35.1721 34.0562C35.0222 34.1244 34.9054 34.249 34.8469 34.4029C34.7883 34.5568 34.7929 34.7275 34.8596 34.8781L35.7971 37.0656L32.3846 38.5499L31.4471 36.3624C31.3788 36.2126 31.2543 36.0957 31.1004 36.0372C30.9465 35.9787 30.7757 35.9833 30.6252 36.0499L27.5533 37.3874V22.7781L38.2471 32.7343L35.1721 34.0562Z" fill="#384BFF"/>
<path d="M24.375 36.25C24.5408 36.25 24.6997 36.1842 24.8169 36.0669C24.9342 35.9497 25 35.7908 25 35.625C25 35.4592 24.9342 35.3003 24.8169 35.1831C24.6997 35.0658 24.5408 35 24.375 35H3.775C3.10533 35 2.46308 34.734 1.98956 34.2604C1.51603 33.7869 1.25 33.1447 1.25 32.475V11.25H35V25.9375C35 26.1033 35.0658 26.2622 35.1831 26.3794C35.3003 26.4967 35.4592 26.5625 35.625 26.5625C35.7908 26.5625 35.9497 26.4967 36.0669 26.3794C36.1842 26.2622 36.25 26.1033 36.25 25.9375V3.775C36.2492 2.77406 35.8512 1.81436 35.1434 1.10659C34.4356 0.398815 33.4759 0.000827564 32.475 0L3.775 0C2.77406 0.000827564 1.81436 0.398815 1.10659 1.10659C0.398815 1.81436 0.000827564 2.77406 0 3.775L0 32.4781C0.00165458 33.4785 0.400007 34.4374 1.10769 35.1445C1.81537 35.8516 2.7746 36.2492 3.775 36.25H24.375ZM3.775 1.25H32.4781C33.1473 1.25083 33.7887 1.51722 34.2616 1.99066C34.7344 2.4641 35 3.10587 35 3.775V10H1.25V3.775C1.25 3.10533 1.51603 2.46308 1.98956 1.98956C2.46308 1.51603 3.10533 1.25 3.775 1.25Z" fill="#384BFF"/>
<path d="M30.625 7.5C30.9958 7.5 31.3584 7.39003 31.6667 7.18401C31.975 6.97798 32.2154 6.68514 32.3573 6.34253C32.4992 5.99992 32.5363 5.62292 32.464 5.25921C32.3916 4.89549 32.213 4.5614 31.9508 4.29918C31.6886 4.03695 31.3545 3.85838 30.9908 3.78603C30.6271 3.71368 30.2501 3.75081 29.9075 3.89273C29.5649 4.03464 29.272 4.27496 29.066 4.58331C28.86 4.89165 28.75 5.25416 28.75 5.625C28.75 6.12228 28.9475 6.5992 29.2992 6.95083C29.6508 7.30246 30.1277 7.5 30.625 7.5ZM30.625 5C30.7486 5 30.8694 5.03666 30.9722 5.10533C31.075 5.17401 31.1551 5.27162 31.2024 5.38582C31.2497 5.50003 31.2621 5.62569 31.238 5.74693C31.2139 5.86817 31.1544 5.97953 31.0669 6.06694C30.9795 6.15435 30.8682 6.21388 30.7469 6.23799C30.6257 6.26211 30.5 6.24973 30.3858 6.20243C30.2716 6.15512 30.174 6.07501 30.1053 5.97223C30.0367 5.86945 30 5.74861 30 5.625C30 5.45924 30.0658 5.30027 30.1831 5.18306C30.3003 5.06585 30.4592 5 30.625 5ZM25.625 7.5C25.9958 7.5 26.3584 7.39003 26.6667 7.18401C26.975 6.97798 27.2154 6.68514 27.3573 6.34253C27.4992 5.99992 27.5363 5.62292 27.464 5.25921C27.3916 4.89549 27.213 4.5614 26.9508 4.29918C26.6886 4.03695 26.3545 3.85838 25.9908 3.78603C25.6271 3.71368 25.2501 3.75081 24.9075 3.89273C24.5649 4.03464 24.272 4.27496 24.066 4.58331C23.86 4.89165 23.75 5.25416 23.75 5.625C23.75 6.12228 23.9475 6.5992 24.2992 6.95083C24.6508 7.30246 25.1277 7.5 25.625 7.5ZM25.625 5C25.7486 5 25.8694 5.03666 25.9722 5.10533C26.075 5.17401 26.1551 5.27162 26.2024 5.38582C26.2497 5.50003 26.2621 5.62569 26.238 5.74693C26.2139 5.86817 26.1544 5.97953 26.0669 6.06694C25.9795 6.15435 25.8682 6.21388 25.7469 6.23799C25.6257 6.26211 25.5 6.24973 25.3858 6.20243C25.2716 6.15512 25.174 6.07501 25.1053 5.97223C25.0367 5.86945 25 5.74861 25 5.625C25 5.45924 25.0658 5.30027 25.1831 5.18306C25.3003 5.06585 25.4592 5 25.625 5ZM20.625 7.5C20.9958 7.5 21.3584 7.39003 21.6667 7.18401C21.975 6.97798 22.2154 6.68514 22.3573 6.34253C22.4992 5.99992 22.5363 5.62292 22.464 5.25921C22.3916 4.89549 22.213 4.5614 21.9508 4.29918C21.6886 4.03695 21.3545 3.85838 20.9908 3.78603C20.6271 3.71368 20.2501 3.75081 19.9075 3.89273C19.5649 4.03464 19.272 4.27496 19.066 4.58331C18.86 4.89165 18.75 5.25416 18.75 5.625C18.75 6.12228 18.9475 6.5992 19.2992 6.95083C19.6508 7.30246 20.1277 7.5 20.625 7.5ZM20.625 5C20.7486 5 20.8694 5.03666 20.9722 5.10533C21.075 5.17401 21.1551 5.27162 21.2024 5.38582C21.2497 5.50003 21.2621 5.62569 21.238 5.74693C21.2139 5.86817 21.1544 5.97953 21.0669 6.06694C20.9795 6.15435 20.8682 6.21388 20.7469 6.23799C20.6257 6.26211 20.5 6.24973 20.3858 6.20243C20.2716 6.15512 20.174 6.07501 20.1053 5.97223C20.0367 5.86945 20 5.74861 20 5.625C20 5.45924 20.0658 5.30027 20.1831 5.18306C20.3003 5.06585 20.4592 5 20.625 5ZM23.125 16.25H11.1875C11.0441 15.5436 10.6608 14.9085 10.1027 14.4523C9.54453 13.9961 8.84585 13.7469 8.125 13.7469C7.40415 13.7469 6.70547 13.9961 6.14734 14.4523C5.58921 14.9085 5.20595 15.5436 5.0625 16.25H4.375C4.20924 16.25 4.05027 16.3158 3.93306 16.4331C3.81585 16.5503 3.75 16.7092 3.75 16.875C3.75 17.0408 3.81585 17.1997 3.93306 17.3169C4.05027 17.4342 4.20924 17.5 4.375 17.5H5.0625C5.20595 18.2064 5.58921 18.8415 6.14734 19.2977C6.70547 19.7539 7.40415 20.0031 8.125 20.0031C8.84585 20.0031 9.54453 19.7539 10.1027 19.2977C10.6608 18.8415 11.0441 18.2064 11.1875 17.5H23.125C23.2908 17.5 23.4497 17.4342 23.5669 17.3169C23.6842 17.1997 23.75 17.0408 23.75 16.875C23.75 16.7092 23.6842 16.5503 23.5669 16.4331C23.4497 16.3158 23.2908 16.25 23.125 16.25ZM8.125 18.75C7.75416 18.75 7.39165 18.64 7.08331 18.434C6.77496 18.228 6.53464 17.9351 6.39273 17.5925C6.25081 17.2499 6.21368 16.8729 6.28603 16.5092C6.35837 16.1455 6.53695 15.8114 6.79917 15.5492C7.0614 15.287 7.39549 15.1084 7.75921 15.036C8.12292 14.9637 8.49992 15.0008 8.84253 15.1427C9.18514 15.2846 9.47798 15.525 9.68401 15.8333C9.89003 16.1416 10 16.5042 10 16.875C10 17.3723 9.80246 17.8492 9.45083 18.2008C9.09919 18.5525 8.62228 18.75 8.125 18.75ZM16.8125 28.75C16.6691 28.0436 16.2858 27.4085 15.7277 26.9523C15.1695 26.4961 14.4708 26.2469 13.75 26.2469C13.0292 26.2469 12.3305 26.4961 11.7723 26.9523C11.2142 27.4085 10.8309 28.0436 10.6875 28.75H4.375C4.20924 28.75 4.05027 28.8158 3.93306 28.9331C3.81585 29.0503 3.75 29.2092 3.75 29.375C3.75 29.5408 3.81585 29.6997 3.93306 29.8169C4.05027 29.9342 4.20924 30 4.375 30H10.6875C10.8309 30.7064 11.2142 31.3415 11.7723 31.7977C12.3305 32.2539 13.0292 32.5031 13.75 32.5031C14.4708 32.5031 15.1695 32.2539 15.7277 31.7977C16.2858 31.3415 16.6691 30.7064 16.8125 30H23.125C23.2908 30 23.4497 29.9342 23.5669 29.8169C23.6842 29.6997 23.75 29.5408 23.75 29.375C23.75 29.2092 23.6842 29.0503 23.5669 28.9331C23.4497 28.8158 23.2908 28.75 23.125 28.75H16.8125ZM13.75 31.25C13.3792 31.25 13.0166 31.14 12.7083 30.934C12.4 30.728 12.1596 30.4351 12.0177 30.0925C11.8758 29.7499 11.8387 29.3729 11.911 29.0092C11.9834 28.6455 12.162 28.3114 12.4242 28.0492C12.6864 27.787 13.0205 27.6084 13.3842 27.536C13.7479 27.4637 14.1249 27.5008 14.4675 27.6427C14.8101 27.7846 15.103 28.025 15.309 28.3333C15.515 28.6416 15.625 29.0042 15.625 29.375C15.625 29.8723 15.4275 30.3492 15.0758 30.7008C14.7242 31.0525 14.2473 31.25 13.75 31.25ZM20.625 20C19.9046 19.9999 19.2063 20.2486 18.6482 20.7042C18.0901 21.1598 17.7066 21.7941 17.5625 22.5H4.375C4.20924 22.5 4.05027 22.5658 3.93306 22.6831C3.81585 22.8003 3.75 22.9592 3.75 23.125C3.75 23.2908 3.81585 23.4497 3.93306 23.5669C4.05027 23.6842 4.20924 23.75 4.375 23.75H17.5625C17.6808 24.3293 17.9609 24.8632 18.3705 25.2897C18.7801 25.7161 19.3022 26.0176 19.8763 26.1591C20.4504 26.3007 21.0528 26.2765 21.6137 26.0893C22.1745 25.9021 22.6708 25.5596 23.0448 25.1017C23.4188 24.6437 23.6552 24.0891 23.7265 23.5021C23.7979 22.9152 23.7012 22.32 23.4479 21.7858C23.1945 21.2516 22.7947 20.8002 22.295 20.4841C21.7954 20.168 21.2163 20.0001 20.625 20ZM20.625 25C20.2542 25 19.8916 24.89 19.5833 24.684C19.275 24.478 19.0346 24.1851 18.8927 23.8425C18.7508 23.4999 18.7137 23.1229 18.786 22.7592C18.8584 22.3955 19.037 22.0614 19.2992 21.7992C19.5614 21.537 19.8955 21.3584 20.2592 21.286C20.6229 21.2137 20.9999 21.2508 21.3425 21.3927C21.6851 21.5346 21.978 21.775 22.184 22.0833C22.39 22.3916 22.5 22.7542 22.5 23.125C22.5 23.6223 22.3025 24.0992 21.9508 24.4508C21.5992 24.8025 21.1223 25 20.625 25Z" fill="#384BFF"/>
</g>
<defs>
<clipPath id="clip0_7433_1467">
<rect width="40" height="40" fill="white"/>
</clipPath>
</defs>
</svg>
