<svg width="40" height="40" viewBox="0 0 40 40" fill="none" xmlns="http://www.w3.org/2000/svg">
<g clip-path="url(#clip0_7433_1440)">
<path d="M37.7695 16.5879L34.8725 16.1394C34.5149 14.7576 33.9695 13.4424 33.2483 12.2121L34.9816 9.8424C35.527 9.09694 35.4483 8.0727 34.7937 7.41816L32.5816 5.2121C32.267 4.89565 31.8492 4.70263 31.4043 4.66815C30.9595 4.63367 30.517 4.76002 30.1573 5.02422L27.7877 6.75755C26.5634 6.03634 25.2422 5.49088 23.8604 5.13331L23.4119 2.23028C23.345 1.78863 23.1214 1.38581 22.782 1.09539C22.4426 0.804962 22.0101 0.646327 21.5634 0.648459H18.4422C17.5149 0.648459 16.7392 1.31513 16.5937 2.23028L16.1452 5.12725C14.7634 5.48482 13.4422 6.03028 12.218 6.75149L9.84826 5.01816C9.1028 4.4727 8.08462 4.55149 7.42402 5.20604L5.21189 7.41816C4.89544 7.73277 4.70243 8.15051 4.66795 8.5954C4.63347 9.0403 4.75982 9.48279 5.02401 9.8424L6.75735 12.2121C6.03614 13.4363 5.49068 14.7576 5.13311 16.1394L2.23614 16.5879C1.79449 16.6548 1.39167 16.8784 1.10124 17.2177C0.810821 17.5571 0.652186 17.9897 0.654318 18.4363V21.5576C0.654318 22.4848 1.32098 23.2606 2.23614 23.406L5.13311 23.8545C5.49068 25.2363 6.03614 26.5576 6.75735 27.7818L5.02401 30.1515C4.47856 30.8969 4.55735 31.9212 5.21189 32.5757L7.42402 34.7879C7.73863 35.1043 8.15637 35.2973 8.60126 35.3318C9.04616 35.3663 9.48865 35.2399 9.84826 34.9757L12.218 33.2424C13.4483 33.9636 14.7634 34.5091 16.1452 34.8666L16.5937 37.7697C16.6606 38.2113 16.8842 38.6141 17.2236 38.9046C17.563 39.195 17.9955 39.3536 18.4422 39.3515H21.5634C22.4907 39.3515 23.2664 38.6848 23.4119 37.7697L23.8604 34.8727C25.2422 34.5151 26.5573 33.9697 27.7877 33.2485L30.1573 34.9818C30.9028 35.5273 31.927 35.4485 32.5816 34.7939L34.7937 32.5818C35.1102 32.2672 35.3032 31.8494 35.3377 31.4045C35.3721 30.9597 35.2458 30.5172 34.9816 30.1576L33.2483 27.7879C33.9695 26.5576 34.5149 25.2424 34.8725 23.8606L37.7695 23.4121C38.2111 23.3452 38.6139 23.1216 38.9044 22.7822C39.1948 22.4428 39.3534 22.0103 39.3513 21.5636V18.4424C39.3513 17.5091 38.6846 16.7333 37.7695 16.5879ZM38.321 21.5636C38.321 21.9818 38.024 22.3272 37.6119 22.3939L34.3755 22.8969C34.1695 22.9272 33.9998 23.0848 33.9513 23.2848C33.5937 24.7939 33.0058 26.2242 32.1877 27.5394C32.0786 27.7151 32.0846 27.9454 32.2119 28.1151L34.1452 30.7576C34.3937 31.0969 34.3573 31.5515 34.0604 31.8485L31.8543 34.0606C31.5574 34.3576 31.1028 34.3879 30.7695 34.1454L28.121 32.2121C28.0379 32.1522 27.9391 32.118 27.8367 32.1137C27.7344 32.1093 27.6331 32.1351 27.5452 32.1879C26.2308 33.0002 24.7943 33.5957 23.2907 33.9515C23.0846 34 22.9331 34.1636 22.9028 34.3757L22.3998 37.6121C22.3331 38.0242 21.9877 38.3212 21.5695 38.3212H18.4483C18.0301 38.3212 17.6846 38.0242 17.618 37.6121L17.1149 34.3697C17.0993 34.2686 17.0541 34.1744 16.9851 34.0989C16.9161 34.0234 16.8263 33.97 16.727 33.9454C15.218 33.5879 13.7877 33 12.4725 32.1818C12.3913 32.1293 12.2964 32.1019 12.1998 32.103C12.0914 32.1045 11.9859 32.1383 11.8967 32.2L9.25432 34.1333C8.91492 34.3757 8.46038 34.3454 8.16341 34.0485L5.93917 31.8485C5.79565 31.7088 5.70789 31.5217 5.69228 31.322C5.67666 31.1224 5.73426 30.9239 5.85432 30.7636L7.78765 28.1151C7.90886 27.9454 7.92099 27.7151 7.81189 27.5394C6.99957 26.225 6.40408 24.7884 6.04826 23.2848C6.02555 23.1846 5.97274 23.0937 5.89691 23.0244C5.82108 22.9551 5.72585 22.9106 5.62402 22.8969L2.38765 22.3939C1.97553 22.3272 1.67856 21.9818 1.67856 21.5636V18.4424C1.67856 18.0242 1.97553 17.6788 2.38765 17.6121L5.62402 17.1091C5.83008 17.0788 5.99977 16.9212 6.04826 16.7212C6.40583 15.2121 6.99371 13.7757 7.81189 12.4666C7.92099 12.2909 7.91492 12.0606 7.78765 11.8909L5.85432 9.24846C5.60583 8.91513 5.6422 8.45452 5.93917 8.15755L8.15129 5.94543C8.44826 5.64846 8.9028 5.61816 9.23614 5.86058L11.8846 7.79391C12.0543 7.91513 12.2846 7.92725 12.4604 7.81816C13.7755 7.00603 15.2058 6.4121 16.7149 6.05452C16.921 6.00603 17.0725 5.8424 17.1028 5.63028L17.6058 2.39391C17.6725 1.98179 18.018 1.68482 18.4361 1.68482H21.5574C21.9755 1.68482 22.321 1.98179 22.3877 2.39391L22.8907 5.63634C22.921 5.8424 23.0786 6.0121 23.2786 6.06058C24.7877 6.41816 26.224 7.00603 27.5331 7.82422C27.7089 7.93331 27.9392 7.92725 28.1089 7.79997L30.7513 5.86664C31.0846 5.61816 31.5452 5.65452 31.8422 5.95149L34.0543 8.16361C34.3513 8.46058 34.3877 8.91513 34.1392 9.24846L32.2058 11.8969C32.0846 12.0666 32.0725 12.2969 32.1816 12.4727C32.9937 13.7879 33.5877 15.2182 33.9452 16.7272C33.9937 16.9333 34.1573 17.0848 34.3695 17.1151L37.6058 17.6182C38.018 17.6848 38.3149 18.0303 38.3149 18.4485V21.5636H38.321Z" fill="#384BFF"/>
<path d="M20 9.5459C14.2363 9.5459 9.54541 14.2368 9.54541 20.0004C9.54541 25.7641 14.2363 30.455 20 30.455C25.7636 30.455 30.4545 25.7641 30.4545 20.0004C30.4545 14.2368 25.7636 9.5459 20 9.5459ZM20 29.4247C14.8 29.4247 10.5757 25.1944 10.5757 20.0004C10.5757 14.8065 14.8 10.5762 20 10.5762C25.2 10.5762 29.4242 14.8004 29.4242 20.0004C29.4242 25.2004 25.2 29.4247 20 29.4247Z" fill="#384BFF"/>
<path d="M23.6362 13.2119H16.8362C15.5028 13.2119 14.418 14.2968 14.418 15.6301V22.424C14.418 23.4968 15.2907 24.3634 16.3574 24.3634H17.9755C17.9513 24.4846 17.9392 24.6119 17.9392 24.7392C17.9392 25.3574 18.218 25.9392 18.6968 26.3331C18.9346 26.5262 19.2125 26.6639 19.5102 26.7363C19.8079 26.8086 20.118 26.8137 20.418 26.7513C21.2543 26.5816 21.9149 25.8665 22.024 25.024C22.0543 24.7998 22.0483 24.5816 22.0058 24.3695H23.6362C24.7089 24.3695 25.5755 23.4968 25.5755 22.4301V20.0422C25.5755 19.8483 25.4665 19.6725 25.2968 19.5816C25.2125 19.539 25.1182 19.5205 25.0241 19.528C24.9301 19.5354 24.8399 19.5687 24.7634 19.624C24.5513 19.7756 24.3028 19.8362 24.0301 19.7998C23.618 19.7452 23.2604 19.418 23.1755 19.0119C23.1149 18.6968 23.1877 18.3937 23.3816 18.1513C23.7089 17.7513 24.3331 17.6665 24.7634 17.9634C24.921 18.0725 25.1271 18.0846 25.2968 17.9998C25.3798 17.9561 25.4496 17.8909 25.4987 17.8109C25.5477 17.7309 25.5743 17.6391 25.5755 17.5452V15.1513C25.5755 14.0786 24.7089 13.2119 23.6362 13.2119ZM24.5452 16.7756C23.824 16.6422 23.0543 16.921 22.5816 17.4968C22.3883 17.7345 22.2505 18.0124 22.1781 18.3101C22.1058 18.6079 22.1008 18.918 22.1634 19.218C22.3331 20.0543 23.0483 20.7149 23.8968 20.824C24.1149 20.8543 24.3331 20.8422 24.5452 20.8059V22.424C24.5452 22.9271 24.1392 23.3331 23.6362 23.3331H21.2483C21.0543 23.3331 20.8786 23.4422 20.7877 23.6119C20.6968 23.7816 20.7149 23.9937 20.8301 24.1452C20.9816 24.3574 21.0422 24.6119 21.0058 24.8846C20.9513 25.2907 20.618 25.6483 20.2119 25.7331C19.9028 25.7998 19.5937 25.7271 19.3513 25.5271C19.1089 25.3331 18.9755 25.0422 18.9755 24.7331C18.9755 24.521 19.0422 24.3149 19.1634 24.1452C19.2786 23.9877 19.2907 23.7816 19.2058 23.6119C19.1615 23.5281 19.0952 23.458 19.0141 23.4089C18.933 23.3598 18.8401 23.3336 18.7452 23.3331H16.3634C15.8604 23.3331 15.4543 22.9271 15.4543 22.424V15.624C15.4543 14.8604 16.0786 14.2362 16.8422 14.2362H23.6362C24.1392 14.2362 24.5452 14.6422 24.5452 15.1452V16.7756Z" fill="#384BFF"/>
</g>
<defs>
<clipPath id="clip0_7433_1440">
<rect width="40" height="40" fill="white"/>
</clipPath>
</defs>
</svg>
